<svg width="33" height="36" viewBox="0 0 33 36" fill="none" xmlns="http://www.w3.org/2000/svg">
<path d="M0 31.8857V13.3714C0 12.72 0.146057 12.1029 0.438171 11.52C0.730285 10.9371 1.1328 10.4571 1.64571 10.08L13.9886 0.822857C14.7086 0.274286 15.5314 0 16.4571 0C17.3829 0 18.2057 0.274286 18.9257 0.822857L31.2686 10.08C31.7829 10.4571 32.1861 10.9371 32.4782 11.52C32.7703 12.1029 32.9157 12.72 32.9143 13.3714V31.8857C32.9143 33.0171 32.5111 33.986 31.7047 34.7924C30.8983 35.5989 29.9301 36.0014 28.8 36H22.6286C22.0457 36 21.5575 35.8025 21.1639 35.4075C20.7703 35.0126 20.5728 34.5243 20.5714 33.9429V23.6571C20.5714 23.0743 20.3739 22.5861 19.979 22.1925C19.584 21.7989 19.0958 21.6014 18.5143 21.6H14.4C13.8171 21.6 13.3289 21.7975 12.9353 22.1925C12.5417 22.5874 12.3442 23.0757 12.3429 23.6571V33.9429C12.3429 34.5257 12.1454 35.0146 11.7504 35.4096C11.3554 35.8046 10.8672 36.0014 10.2857 36H4.11428C2.98286 36 2.01463 35.5975 1.2096 34.7924C0.404571 33.9874 0.00137143 33.0185 0 31.8857Z" fill="#BCBCBC"/>
</svg>
