<svg width="1024" height="1202" viewBox="0 0 1024 1202" fill="none" xmlns="http://www.w3.org/2000/svg">
<path d="M1023.5 41H3M1023.5 81H1M1023.5 121H1M1023.5 161H1M1023.5 201H1M1023.5 241H1M1023.5 281H1M1023.5 321H1M1023.5 361H1M1023.5 401H1M1023.5 441H1M1023.5 481H1M1023.5 521H1M1023.5 561H1M1023.5 601H1M1023.5 641H1M1023.5 681H1M1023.5 721H1M1023.5 801H1M1023.5 881H1M1023.5 961H1M1023.5 1041H1M1023.5 1121H1M1023.5 761H1M1023.5 841H1M1023.5 921H1M1023.5 1001H1M1023.5 1081H1M1023.5 1161H1M58 1H1003.5C1014.55 1 1023.5 9.95431 1023.5 21V1180.97C1023.5 1192.03 1014.53 1200.99 1003.47 1200.97L20.9725 1199.62C9.93757 1199.61 1 1190.66 1 1179.62V21C1 9.95431 9.9543 1 21 1H58ZM58 1V1199.67" stroke="black"/>
<path d="M29.274 28V18.8132H27.6663V17.6648H30.6521V28H29.274Z" fill="black"/>
<path d="M32.9461 65.4736V68H26.0559V66.9665C27.4952 65.8028 28.6972 64.6238 29.6618 63.4295C30.6264 62.2199 31.1087 61.2017 31.1087 60.3749C31.1087 59.8237 30.9786 59.3873 30.7183 59.0658C30.458 58.7443 29.9757 58.5835 29.2713 58.5835C28.6742 58.5835 28.077 58.7136 27.4799 58.9739V60.6505H26.2856V58.3079C27.3421 57.726 28.3909 57.4351 29.4321 57.4351C30.4427 57.4351 31.2159 57.6878 31.7518 58.193C32.2877 58.683 32.5556 59.3644 32.5556 60.2371C32.5556 61.2324 32.0657 62.3424 31.0857 63.5673C30.1211 64.7923 29.057 65.8717 27.8933 66.8057V66.8516H31.7518V65.4736H32.9461Z" fill="black"/>
<path d="M25.5966 106.735C26.4694 106.995 27.3574 107.125 28.2608 107.125C29.3173 107.125 30.1211 106.911 30.6723 106.482C31.2235 106.069 31.4991 105.441 31.4991 104.599C31.4991 103.803 31.2312 103.221 30.6953 102.854C30.1747 102.486 29.3862 102.302 28.3297 102.302H27.6636V101.177H28.123C29.0417 101.177 29.7536 100.947 30.2589 100.488C30.7795 100.029 31.0398 99.3931 31.0398 98.5816C31.0398 97.9385 30.8637 97.4486 30.5116 97.1117C30.1594 96.7596 29.6082 96.5835 28.8579 96.5835C28.1842 96.5835 27.5718 96.6983 27.0206 96.928V98.4209H25.8263V96.239C26.8368 95.7031 27.878 95.4351 28.9498 95.4351C30.0522 95.4351 30.9173 95.7184 31.5451 96.2849C32.1728 96.8514 32.4867 97.5864 32.4867 98.4898C32.4867 99.8525 31.7518 100.871 30.2819 101.544V101.59C32.058 101.973 32.9461 102.976 32.9461 104.599C32.9461 105.135 32.8389 105.625 32.6245 106.069C32.4255 106.528 32.1269 106.919 31.7288 107.24C31.3307 107.577 30.8331 107.837 30.236 108.021C29.6388 108.205 28.9575 108.297 28.1919 108.297C27.2732 108.297 26.4081 108.174 25.5966 107.929V106.735Z" fill="black"/>
<path d="M30.8777 144.622H25.1359V143.611L31.1303 135.665H32.2557V143.474H33.6337V144.622H32.2557V147.378H30.8777V144.622ZM26.6747 143.474H30.8777V137.916H30.8318L26.6747 143.428V143.474Z" fill="black"/>
<path d="M25.9404 186.827C26.6907 187.026 27.4486 187.125 28.2142 187.125C29.286 187.125 30.1204 186.88 30.7176 186.39C31.3147 185.916 31.6133 185.181 31.6133 184.186C31.6133 183.282 31.3147 182.593 30.7176 182.119C30.1358 181.644 29.2247 181.407 27.9845 181.407C27.418 181.407 26.8132 181.437 26.1701 181.498V175.665H32.4172V178.191H31.2229V176.813H27.4333V180.304C27.7548 180.274 28.0458 180.258 28.306 180.258C29.73 180.258 30.8784 180.587 31.7511 181.246C32.6239 181.889 33.0602 182.838 33.0602 184.094C33.0602 185.319 32.6239 186.322 31.7511 187.102C30.8784 187.899 29.6841 188.297 28.1682 188.297C27.3721 188.297 26.6294 188.212 25.9404 188.044V186.827Z" fill="black"/>
<path d="M32.7151 214.631C32.2098 214.555 31.7887 214.516 31.4519 214.516C30.0126 214.516 28.9255 214.968 28.1905 215.872C27.4709 216.76 27.0881 218.023 27.0422 219.661L27.0881 219.684C27.8996 218.842 28.8872 218.421 30.0509 218.421C31.1074 218.421 31.9648 218.758 32.6232 219.431C33.2969 220.105 33.6337 220.947 33.6337 221.958C33.6337 223.091 33.2739 224.048 32.5543 224.829C31.8347 225.61 30.893 226 29.7293 226C28.4432 226 27.4326 225.502 26.6977 224.507C25.9627 223.497 25.5953 222.065 25.5953 220.212C25.5953 218.099 26.1082 216.43 27.1341 215.205C28.1752 213.981 29.6145 213.368 31.4519 213.368C31.8193 213.368 32.2404 213.406 32.7151 213.483V214.631ZM27.0422 220.786C27.1187 221.981 27.379 222.961 27.8231 223.726C28.2824 224.477 28.9331 224.852 29.7753 224.852C30.4796 224.852 31.0538 224.614 31.4978 224.14C31.9571 223.665 32.1868 223.007 32.1868 222.164C32.1868 221.384 31.9725 220.756 31.5437 220.281C31.1303 219.807 30.5485 219.569 29.7982 219.569C28.7571 219.569 27.8384 219.975 27.0422 220.786Z" fill="black"/>
<path d="M27.8933 268.067C27.9392 267.102 28.0924 266.115 28.3527 265.104C28.6283 264.094 28.9575 263.106 29.3402 262.142C29.723 261.162 30.1441 260.228 30.6034 259.34C31.0628 258.436 31.5145 257.609 31.9585 256.859L31.9355 256.813H27.2502V258.352H26.0559V255.665H33.4054V256.652C32.8695 257.525 32.3642 258.421 31.8896 259.34C31.4302 260.258 31.0168 261.192 30.6494 262.142C30.2972 263.091 30.0139 264.063 29.7996 265.058C29.5852 266.038 29.4704 267.041 29.4551 268.067H27.8933Z" fill="black"/>
<path d="M28.0068 299.454V299.408C26.5063 298.658 25.756 297.701 25.756 296.538C25.756 295.588 26.1158 294.823 26.8355 294.241C27.5704 293.659 28.5044 293.368 29.6375 293.368C30.7552 293.368 31.6356 293.636 32.2787 294.172C32.9218 294.708 33.2433 295.42 33.2433 296.308C33.2433 297.502 32.4471 298.505 30.8547 299.317V299.363C31.7428 299.822 32.4012 300.319 32.8299 300.855C33.2586 301.391 33.473 301.996 33.473 302.67C33.473 303.619 33.0978 304.415 32.3476 305.058C31.5973 305.686 30.6174 306 29.4078 306C28.2288 306 27.2872 305.709 26.5828 305.127C25.8785 304.545 25.5264 303.788 25.5264 302.854C25.5264 301.445 26.3532 300.312 28.0068 299.454ZM29.0174 299.96C27.6546 300.649 26.9733 301.59 26.9733 302.785C26.9733 303.474 27.203 303.994 27.6623 304.346C28.1216 304.683 28.7188 304.852 29.4537 304.852C30.2346 304.852 30.8547 304.668 31.3141 304.3C31.7887 303.933 32.026 303.458 32.026 302.876C32.026 302.295 31.7811 301.789 31.2911 301.361C30.8164 300.917 30.0585 300.45 29.0174 299.96ZM29.8901 298.834C31.2069 298.115 31.8653 297.288 31.8653 296.354C31.8653 295.741 31.6433 295.282 31.1992 294.976C30.7705 294.67 30.2116 294.516 29.5226 294.516C28.8336 294.516 28.2594 294.67 27.8001 294.976C27.3561 295.282 27.1341 295.703 27.1341 296.239C27.1341 296.545 27.203 296.821 27.3408 297.066C27.4939 297.295 27.6929 297.51 27.9379 297.709C28.1829 297.908 28.4738 298.099 28.8107 298.283C29.1475 298.451 29.5073 298.635 29.8901 298.834Z" fill="black"/>
<path d="M26.2843 347.034C26.7742 347.11 27.1953 347.148 27.5475 347.148C28.9714 347.148 30.0509 346.689 30.7858 345.77C31.5208 344.836 31.9112 343.512 31.9571 341.797L31.9112 341.774C31.0997 342.601 30.1121 343.014 28.9485 343.014C27.892 343.014 27.0269 342.677 26.3532 342.004C25.6948 341.33 25.3656 340.473 25.3656 339.431C25.3656 338.298 25.7254 337.349 26.445 336.583C27.1647 335.818 28.1063 335.435 29.27 335.435C30.5715 335.435 31.582 335.94 32.3017 336.951C33.0366 337.946 33.4041 339.37 33.4041 341.223C33.4041 343.397 32.8835 345.12 31.8423 346.39C30.8011 347.661 29.3695 348.297 27.5475 348.297C27.18 348.297 26.7589 348.258 26.2843 348.182V347.034ZM31.9571 340.649C31.8806 339.454 31.6126 338.482 31.1533 337.732C30.7093 336.966 30.0662 336.583 29.2241 336.583C28.5197 336.583 27.9379 336.821 27.4786 337.295C27.0345 337.77 26.8125 338.429 26.8125 339.271C26.8125 340.052 27.0192 340.679 27.4326 341.154C27.8613 341.629 28.4508 341.866 29.2011 341.866C30.227 341.866 31.1456 341.46 31.9571 340.649Z" fill="black"/>
<path d="M24.4506 386V376.813H22.8429V375.665H25.8286V386H24.4506ZM28.3476 380.855C28.3476 379.156 28.7074 377.831 29.4271 376.882C30.162 375.917 31.1419 375.435 32.3669 375.435C33.4999 375.435 34.4109 375.902 35.0999 376.836C35.8043 377.755 36.1564 379.049 36.1564 380.718C36.1564 382.371 35.7966 383.703 35.077 384.714C34.3726 385.724 33.4157 386.23 32.2061 386.23C31.0424 386.23 30.1084 385.74 29.4041 384.76C28.6998 383.78 28.3476 382.478 28.3476 380.855ZM29.7945 380.764C29.7945 382.157 30.0089 383.229 30.4376 383.979C30.8816 384.714 31.4788 385.081 32.229 385.081C33.0252 385.081 33.6377 384.706 34.0664 383.956C34.4951 383.19 34.7095 382.111 34.7095 380.718C34.7095 379.385 34.5028 378.367 34.0894 377.663C33.6913 376.943 33.0865 376.583 32.275 376.583C31.4941 376.583 30.8816 376.936 30.4376 377.64C30.0089 378.329 29.7945 379.37 29.7945 380.764Z" fill="black"/>
<path d="M26.5217 426V416.813H24.914V415.665H27.8997V426H26.5217ZM32.0264 426V416.813H30.4187V415.665H33.4044V426H32.0264Z" fill="black"/>
<path d="M25.141 466V456.813H23.5333V455.665H26.519V466H25.141ZM35.6984 463.474V466H28.8083V464.966C30.2476 463.803 31.4495 462.624 32.4141 461.43C33.3787 460.22 33.8611 459.202 33.8611 458.375C33.8611 457.824 33.7309 457.387 33.4706 457.066C33.2103 456.744 32.728 456.583 32.0237 456.583C31.4265 456.583 30.8294 456.714 30.2323 456.974V458.651H29.038V456.308C30.0945 455.726 31.1433 455.435 32.1845 455.435C33.195 455.435 33.9682 455.688 34.5041 456.193C35.04 456.683 35.308 457.364 35.308 458.237C35.308 459.232 34.818 460.342 33.8381 461.567C32.8735 462.792 31.8093 463.872 30.6457 464.806V464.852H34.5041V463.474H35.6984Z" fill="black"/>
<path d="M25.141 506V496.813H23.5333V495.665H26.519V506H25.141ZM28.349 506.735C29.2217 506.995 30.1098 507.125 31.0131 507.125C32.0696 507.125 32.8735 506.911 33.4247 506.482C33.9759 506.069 34.2515 505.441 34.2515 504.599C34.2515 503.803 33.9835 503.221 33.4476 502.854C32.9271 502.486 32.1385 502.302 31.082 502.302H30.416V501.177H30.8753C31.794 501.177 32.506 500.947 33.0113 500.488C33.5319 500.029 33.7922 499.393 33.7922 498.582C33.7922 497.939 33.6161 497.449 33.2639 497.112C32.9118 496.76 32.3605 496.583 31.6103 496.583C30.9366 496.583 30.3241 496.698 29.7729 496.928V498.421H28.5786V496.239C29.5892 495.703 30.6304 495.435 31.7021 495.435C32.8046 495.435 33.6697 495.718 34.2974 496.285C34.9252 496.851 35.2391 497.586 35.2391 498.49C35.2391 499.852 34.5041 500.871 33.0342 501.544V501.59C34.8104 501.973 35.6984 502.976 35.6984 504.599C35.6984 505.135 35.5912 505.625 35.3769 506.069C35.1778 506.528 34.8793 506.919 34.4812 507.24C34.0831 507.577 33.5855 507.837 32.9883 508.021C32.3912 508.205 31.7098 508.297 30.9442 508.297C30.0256 508.297 29.1605 508.174 28.349 507.929V506.735Z" fill="black"/>
<path d="M24.4506 546V536.813H22.8429V535.665H25.8286V546H24.4506ZM33.63 544.622H27.8883V543.611L33.8827 535.665H35.0081V543.474H36.3861V544.622H35.0081V547.378H33.63V544.622ZM29.4271 543.474H33.63V537.916H33.5841L29.4271 543.428V543.474Z" fill="black"/>
<path d="M24.7958 586V576.813H23.1881V575.665H26.1738V586H24.7958ZM28.6928 586.827C29.443 587.026 30.201 587.125 30.9665 587.125C32.0383 587.125 32.8728 586.88 33.4699 586.39C34.0671 585.916 34.3657 585.181 34.3657 584.186C34.3657 583.282 34.0671 582.593 33.4699 582.119C32.8881 581.644 31.9771 581.407 30.7369 581.407C30.1703 581.407 29.5655 581.437 28.9225 581.498V575.665H35.1695V578.191H33.9752V576.813H30.1857V580.304C30.5072 580.274 30.7981 580.258 31.0584 580.258C32.4824 580.258 33.6307 580.587 34.5035 581.246C35.3762 581.889 35.8126 582.838 35.8126 584.094C35.8126 585.319 35.3762 586.322 34.5035 587.102C33.6307 587.899 32.4364 588.297 30.9206 588.297C30.1244 588.297 29.3818 588.212 28.6928 588.044V586.827Z" fill="black"/>
<path d="M24.4506 626V616.813H22.8429V615.665H25.8286V626H24.4506ZM35.4674 614.631C34.9621 614.555 34.5411 614.516 34.2042 614.516C32.7649 614.516 31.6778 614.968 30.9429 615.872C30.2233 616.76 29.8405 618.023 29.7945 619.661L29.8405 619.684C30.652 618.842 31.6396 618.421 32.8032 618.421C33.8597 618.421 34.7172 618.758 35.3755 619.431C36.0492 620.105 36.3861 620.947 36.3861 621.958C36.3861 623.091 36.0263 624.048 35.3066 624.829C34.587 625.61 33.6454 626 32.4817 626C31.1955 626 30.185 625.502 29.45 624.507C28.7151 623.497 28.3476 622.065 28.3476 620.212C28.3476 618.099 28.8605 616.43 29.8864 615.205C30.9276 613.981 32.3669 613.368 34.2042 613.368C34.5717 613.368 34.9928 613.406 35.4674 613.483V614.631ZM29.7945 620.786C29.8711 621.981 30.1314 622.961 30.5754 623.726C31.0348 624.477 31.6855 624.852 32.5276 624.852C33.2319 624.852 33.8061 624.614 34.2502 624.14C34.7095 623.665 34.9392 623.007 34.9392 622.164C34.9392 621.384 34.7248 620.756 34.2961 620.281C33.8827 619.807 33.3008 619.569 32.5506 619.569C31.5094 619.569 30.5907 619.975 29.7945 620.786Z" fill="black"/>
<path d="M25.141 666V656.813H23.5333V655.665H26.519V666H25.141ZM30.6457 668.067C30.6916 667.102 30.8447 666.115 31.105 665.104C31.3806 664.094 31.7098 663.106 32.0926 662.142C32.4754 661.162 32.8964 660.228 33.3558 659.34C33.8151 658.436 34.2668 657.609 34.7108 656.859L34.6879 656.813H30.0026V658.352H28.8083V655.665H36.1578V656.652C35.6219 657.525 35.1166 658.421 34.6419 659.34C34.1826 660.258 33.7692 661.192 33.4017 662.142C33.0496 663.091 32.7663 664.063 32.5519 665.058C32.3376 666.038 32.2227 667.041 32.2074 668.067H30.6457Z" fill="black"/>
<path d="M24.4506 706V696.813H22.8429V695.665H25.8286V706H24.4506ZM30.7592 699.454V699.408C29.2586 698.658 28.5084 697.701 28.5084 696.538C28.5084 695.588 28.8682 694.823 29.5878 694.241C30.3228 693.659 31.2568 693.368 32.3898 693.368C33.5076 693.368 34.388 693.636 35.031 694.172C35.6741 694.708 35.9957 695.42 35.9957 696.308C35.9957 697.502 35.1995 698.505 33.6071 699.317V699.363C34.4951 699.822 35.1535 700.319 35.5822 700.855C36.011 701.391 36.2253 701.996 36.2253 702.67C36.2253 703.619 35.8502 704.415 35.0999 705.058C34.3497 705.686 33.3697 706 32.1601 706C30.9812 706 30.0395 705.709 29.3352 705.127C28.6309 704.545 28.2787 703.788 28.2787 702.854C28.2787 701.445 29.1055 700.312 30.7592 699.454ZM31.7697 699.96C30.407 700.649 29.7256 701.59 29.7256 702.785C29.7256 703.474 29.9553 703.994 30.4146 704.346C30.874 704.683 31.4711 704.852 32.2061 704.852C32.987 704.852 33.6071 704.668 34.0664 704.3C34.5411 703.933 34.7784 703.458 34.7784 702.876C34.7784 702.295 34.5334 701.789 34.0434 701.361C33.5688 700.917 32.8109 700.45 31.7697 699.96ZM32.6425 698.834C33.9592 698.115 34.6176 697.288 34.6176 696.354C34.6176 695.741 34.3956 695.282 33.9516 694.976C33.5229 694.67 32.964 694.516 32.275 694.516C31.586 694.516 31.0118 694.67 30.5525 694.976C30.1084 695.282 29.8864 695.703 29.8864 696.239C29.8864 696.545 29.9553 696.821 30.0931 697.066C30.2462 697.295 30.4453 697.51 30.6903 697.709C30.9352 697.908 31.2262 698.099 31.563 698.283C31.8999 698.451 32.2597 698.635 32.6425 698.834Z" fill="black"/>
<path d="M24.4506 746V736.813H22.8429V735.665H25.8286V746H24.4506ZM29.0366 747.034C29.5266 747.11 29.9477 747.148 30.2998 747.148C31.7238 747.148 32.8032 746.689 33.5382 745.77C34.2731 744.836 34.6636 743.512 34.7095 741.797L34.6636 741.774C33.8521 742.601 32.8645 743.014 31.7008 743.014C30.6443 743.014 29.7792 742.677 29.1055 742.004C28.4471 741.33 28.1179 740.473 28.1179 739.431C28.1179 738.298 28.4778 737.349 29.1974 736.583C29.917 735.818 30.8587 735.435 32.0223 735.435C33.3238 735.435 34.3344 735.94 35.054 736.951C35.7889 737.946 36.1564 739.37 36.1564 741.223C36.1564 743.397 35.6358 745.12 34.5947 746.39C33.5535 747.661 32.1219 748.297 30.2998 748.297C29.9323 748.297 29.5113 748.258 29.0366 748.182V747.034ZM34.7095 740.649C34.6329 739.454 34.365 738.482 33.9056 737.732C33.4616 736.966 32.8185 736.583 31.9764 736.583C31.2721 736.583 30.6903 736.821 30.2309 737.295C29.7869 737.77 29.5649 738.429 29.5649 739.271C29.5649 740.052 29.7716 740.679 30.185 741.154C30.6137 741.629 31.2032 741.866 31.9534 741.866C32.9793 741.866 33.898 741.46 34.7095 740.649Z" fill="black"/>
<path d="M28.1226 783.474V786H21.2325V784.966C22.6718 783.803 23.8737 782.624 24.8384 781.43C25.803 780.22 26.2853 779.202 26.2853 778.375C26.2853 777.824 26.1551 777.387 25.8948 777.066C25.6345 776.744 25.1522 776.583 24.4479 776.583C23.8508 776.583 23.2536 776.714 22.6565 776.974V778.651H21.4622V776.308C22.5187 775.726 23.5675 775.435 24.6087 775.435C25.6192 775.435 26.3925 775.688 26.9284 776.193C27.4643 776.683 27.7322 777.364 27.7322 778.237C27.7322 779.232 27.2422 780.342 26.2623 781.567C25.2977 782.792 24.2336 783.872 23.0699 784.806V784.852H26.9284V783.474H28.1226ZM29.7283 780.855C29.7283 779.156 30.0881 777.831 30.8078 776.882C31.5427 775.917 32.5227 775.435 33.7476 775.435C34.8806 775.435 35.7916 775.902 36.4807 776.836C37.185 777.755 37.5371 779.049 37.5371 780.718C37.5371 782.371 37.1773 783.703 36.4577 784.714C35.7534 785.724 34.7964 786.23 33.5868 786.23C32.4231 786.23 31.4891 785.74 30.7848 784.76C30.0805 783.78 29.7283 782.478 29.7283 780.855ZM31.1753 780.764C31.1753 782.157 31.3896 783.229 31.8183 783.979C32.2624 784.714 32.8595 785.081 33.6098 785.081C34.406 785.081 35.0184 784.706 35.4471 783.956C35.8759 783.19 36.0902 782.111 36.0902 780.718C36.0902 779.385 35.8835 778.367 35.4701 777.663C35.072 776.943 34.4672 776.583 33.6557 776.583C32.8748 776.583 32.2624 776.936 31.8183 777.64C31.3896 778.329 31.1753 779.37 31.1753 780.764Z" fill="black"/>
<path d="M30.1937 823.474V826H23.3036V824.966C24.7429 823.803 25.9448 822.624 26.9094 821.43C27.874 820.22 28.3564 819.202 28.3564 818.375C28.3564 817.824 28.2262 817.387 27.9659 817.066C27.7056 816.744 27.2233 816.583 26.519 816.583C25.9218 816.583 25.3247 816.714 24.7276 816.974V818.651H23.5333V816.308C24.5898 815.726 25.6386 815.435 26.6798 815.435C27.6903 815.435 28.4635 815.688 28.9994 816.193C29.5353 816.683 29.8033 817.364 29.8033 818.237C29.8033 819.232 29.3133 820.342 28.3334 821.567C27.3688 822.792 26.3046 823.872 25.141 824.806V824.852H28.9994V823.474H30.1937ZM33.4071 826V816.813H31.7994V815.665H34.7851V826H33.4071Z" fill="black"/>
<path d="M28.813 863.474V866H21.9229V864.966C23.3621 863.803 24.5641 862.624 25.5287 861.43C26.4933 860.22 26.9756 859.202 26.9756 858.375C26.9756 857.824 26.8455 857.387 26.5852 857.066C26.3249 856.744 25.8426 856.583 25.1383 856.583C24.5411 856.583 23.944 856.714 23.3468 856.974V858.651H22.1525V856.308C23.209 855.726 24.2579 855.435 25.299 855.435C26.3096 855.435 27.0828 855.688 27.6187 856.193C28.1546 856.683 28.4226 857.364 28.4226 858.237C28.4226 859.232 27.9326 860.342 26.9527 861.567C25.9881 862.792 24.9239 863.872 23.7602 864.806V864.852H27.6187V863.474H28.813ZM37.0791 863.474V866H30.189V864.966C31.6283 863.803 32.8302 862.624 33.7948 861.43C34.7595 860.22 35.2418 859.202 35.2418 858.375C35.2418 857.824 35.1116 857.387 34.8513 857.066C34.591 856.744 34.1087 856.583 33.4044 856.583C32.8073 856.583 32.2101 856.714 31.613 856.974V858.651H30.4187V856.308C31.4752 855.726 32.524 855.435 33.5652 855.435C34.5757 855.435 35.349 855.688 35.8849 856.193C36.4208 856.683 36.6887 857.364 36.6887 858.237C36.6887 859.232 36.1987 860.342 35.2188 861.567C34.2542 862.792 33.19 863.872 32.0264 864.806V864.852H35.8849V863.474H37.0791Z" fill="black"/>
<path d="M28.813 903.474V906H21.9229V904.966C23.3621 903.803 24.5641 902.624 25.5287 901.43C26.4933 900.22 26.9756 899.202 26.9756 898.375C26.9756 897.824 26.8455 897.387 26.5852 897.066C26.3249 896.744 25.8426 896.583 25.1383 896.583C24.5411 896.583 23.944 896.714 23.3468 896.974V898.651H22.1525V896.308C23.209 895.726 24.2579 895.435 25.299 895.435C26.3096 895.435 27.0828 895.688 27.6187 896.193C28.1546 896.683 28.4226 897.364 28.4226 898.237C28.4226 899.232 27.9326 900.342 26.9527 901.567C25.9881 902.792 24.9239 903.872 23.7602 904.806V904.852H27.6187V903.474H28.813ZM29.7297 906.735C30.6024 906.995 31.4905 907.125 32.3939 907.125C33.4503 907.125 34.2542 906.911 34.8054 906.482C35.3566 906.069 35.6322 905.441 35.6322 904.599C35.6322 903.803 35.3643 903.221 34.8284 902.854C34.3078 902.486 33.5192 902.302 32.4628 902.302H31.7967V901.177H32.2561C33.1747 901.177 33.8867 900.947 34.392 900.488C34.9126 900.029 35.1729 899.393 35.1729 898.582C35.1729 897.939 34.9968 897.449 34.6446 897.112C34.2925 896.76 33.7413 896.583 32.991 896.583C32.3173 896.583 31.7048 896.698 31.1536 896.928V898.421H29.9593V896.239C30.9699 895.703 32.0111 895.435 33.0829 895.435C34.1853 895.435 35.0504 895.718 35.6782 896.285C36.3059 896.851 36.6198 897.586 36.6198 898.49C36.6198 899.852 35.8849 900.871 34.415 901.544V901.59C36.1911 901.973 37.0791 902.976 37.0791 904.599C37.0791 905.135 36.972 905.625 36.7576 906.069C36.5586 906.528 36.26 906.919 35.8619 907.24C35.4638 907.577 34.9662 907.837 34.369 908.021C33.7719 908.205 33.0905 908.297 32.325 908.297C31.4063 908.297 30.5412 908.174 29.7297 907.929V906.735Z" fill="black"/>
<path d="M28.1226 943.474V946H21.2325V944.966C22.6718 943.803 23.8737 942.624 24.8384 941.43C25.803 940.22 26.2853 939.202 26.2853 938.375C26.2853 937.824 26.1551 937.387 25.8948 937.066C25.6345 936.744 25.1522 936.583 24.4479 936.583C23.8508 936.583 23.2536 936.714 22.6565 936.974V938.651H21.4622V936.308C22.5187 935.726 23.5675 935.435 24.6087 935.435C25.6192 935.435 26.3925 935.688 26.9284 936.193C27.4643 936.683 27.7322 937.364 27.7322 938.237C27.7322 939.232 27.2422 940.342 26.2623 941.567C25.2977 942.792 24.2336 943.872 23.0699 944.806V944.852H26.9284V943.474H28.1226ZM35.0108 944.622H29.269V943.611L35.2634 935.665H36.3888V943.474H37.7668V944.622H36.3888V947.378H35.0108V944.622ZM30.8078 943.474H35.0108V937.916H34.9648L30.8078 943.428V943.474Z" fill="black"/>
<path d="M28.4678 983.474V986H21.5777V984.966C23.017 983.803 24.2189 982.624 25.1835 981.43C26.1481 980.22 26.6305 979.202 26.6305 978.375C26.6305 977.824 26.5003 977.387 26.24 977.066C25.9797 976.744 25.4974 976.583 24.7931 976.583C24.1959 976.583 23.5988 976.714 23.0017 976.974V978.651H21.8074V976.308C22.8639 975.726 23.9127 975.435 24.9539 975.435C25.9644 975.435 26.7376 975.688 27.2735 976.193C27.8094 976.683 28.0774 977.364 28.0774 978.237C28.0774 979.232 27.5874 980.342 26.6075 981.567C25.6429 982.792 24.5787 983.872 23.4151 984.806V984.852H27.2735V983.474H28.4678ZM30.0735 986.827C30.8238 987.026 31.5817 987.125 32.3472 987.125C33.419 987.125 34.2535 986.88 34.8507 986.39C35.4478 985.916 35.7464 985.181 35.7464 984.186C35.7464 983.282 35.4478 982.593 34.8507 982.119C34.2688 981.644 33.3578 981.407 32.1176 981.407C31.5511 981.407 30.9463 981.437 30.3032 981.498V975.665H36.5502V978.191H35.3559V976.813H31.5664V980.304C31.8879 980.274 32.1788 980.258 32.4391 980.258C33.8631 980.258 35.0114 980.587 35.8842 981.246C36.7569 981.889 37.1933 982.838 37.1933 984.094C37.1933 985.319 36.7569 986.322 35.8842 987.102C35.0114 987.899 33.8171 988.297 32.3013 988.297C31.5051 988.297 30.7625 988.212 30.0735 988.044V986.827Z" fill="black"/>
<path d="M28.1226 1023.47V1026H21.2325V1024.97C22.6718 1023.8 23.8737 1022.62 24.8384 1021.43C25.803 1020.22 26.2853 1019.2 26.2853 1018.37C26.2853 1017.82 26.1551 1017.39 25.8948 1017.07C25.6345 1016.74 25.1522 1016.58 24.4479 1016.58C23.8508 1016.58 23.2536 1016.71 22.6565 1016.97V1018.65H21.4622V1016.31C22.5187 1015.73 23.5675 1015.44 24.6087 1015.44C25.6192 1015.44 26.3925 1015.69 26.9284 1016.19C27.4643 1016.68 27.7322 1017.36 27.7322 1018.24C27.7322 1019.23 27.2422 1020.34 26.2623 1021.57C25.2977 1022.79 24.2336 1023.87 23.0699 1024.81V1024.85H26.9284V1023.47H28.1226ZM36.8481 1014.63C36.3429 1014.55 35.9218 1014.52 35.5849 1014.52C34.1457 1014.52 33.0586 1014.97 32.3236 1015.87C31.604 1016.76 31.2212 1018.02 31.1753 1019.66L31.2212 1019.68C32.0327 1018.84 33.0203 1018.42 34.1839 1018.42C35.2404 1018.42 36.0979 1018.76 36.7563 1019.43C37.43 1020.11 37.7668 1020.95 37.7668 1021.96C37.7668 1023.09 37.407 1024.05 36.6874 1024.83C35.9677 1025.61 35.0261 1026 33.8624 1026C32.5762 1026 31.5657 1025.5 30.8307 1024.51C30.0958 1023.5 29.7283 1022.06 29.7283 1020.21C29.7283 1018.1 30.2413 1016.43 31.2671 1015.21C32.3083 1013.98 33.7476 1013.37 35.5849 1013.37C35.9524 1013.37 36.3735 1013.41 36.8481 1013.48V1014.63ZM31.1753 1020.79C31.2518 1021.98 31.5121 1022.96 31.9561 1023.73C32.4155 1024.48 33.0662 1024.85 33.9083 1024.85C34.6127 1024.85 35.1868 1024.61 35.6309 1024.14C36.0902 1023.67 36.3199 1023.01 36.3199 1022.16C36.3199 1021.38 36.1055 1020.76 35.6768 1020.28C35.2634 1019.81 34.6816 1019.57 33.9313 1019.57C32.8901 1019.57 31.9714 1019.97 31.1753 1020.79Z" fill="black"/>
<path d="M28.813 1063.47V1066H21.9229V1064.97C23.3621 1063.8 24.5641 1062.62 25.5287 1061.43C26.4933 1060.22 26.9756 1059.2 26.9756 1058.37C26.9756 1057.82 26.8455 1057.39 26.5852 1057.07C26.3249 1056.74 25.8426 1056.58 25.1383 1056.58C24.5411 1056.58 23.944 1056.71 23.3468 1056.97V1058.65H22.1525V1056.31C23.209 1055.73 24.2579 1055.44 25.299 1055.44C26.3096 1055.44 27.0828 1055.69 27.6187 1056.19C28.1546 1056.68 28.4226 1057.36 28.4226 1058.24C28.4226 1059.23 27.9326 1060.34 26.9527 1061.57C25.9881 1062.79 24.9239 1063.87 23.7602 1064.81V1064.85H27.6187V1063.47H28.813ZM32.0264 1068.07C32.0723 1067.1 32.2254 1066.11 32.4857 1065.1C32.7613 1064.09 33.0905 1063.11 33.4733 1062.14C33.8561 1061.16 34.2772 1060.23 34.7365 1059.34C35.1958 1058.44 35.6475 1057.61 36.0916 1056.86L36.0686 1056.81H31.3833V1058.35H30.189V1055.66H37.5385V1056.65C37.0026 1057.53 36.4973 1058.42 36.0227 1059.34C35.5633 1060.26 35.1499 1061.19 34.7824 1062.14C34.4303 1063.09 34.147 1064.06 33.9327 1065.06C33.7183 1066.04 33.6035 1067.04 33.5881 1068.07H32.0264Z" fill="black"/>
<path d="M28.1226 1103.47V1106H21.2325V1104.97C22.6718 1103.8 23.8737 1102.62 24.8384 1101.43C25.803 1100.22 26.2853 1099.2 26.2853 1098.37C26.2853 1097.82 26.1551 1097.39 25.8948 1097.07C25.6345 1096.74 25.1522 1096.58 24.4479 1096.58C23.8508 1096.58 23.2536 1096.71 22.6565 1096.97V1098.65H21.4622V1096.31C22.5187 1095.73 23.5675 1095.44 24.6087 1095.44C25.6192 1095.44 26.3925 1095.69 26.9284 1096.19C27.4643 1096.68 27.7322 1097.36 27.7322 1098.24C27.7322 1099.23 27.2422 1100.34 26.2623 1101.57C25.2977 1102.79 24.2336 1103.87 23.0699 1104.81V1104.85H26.9284V1103.47H28.1226ZM32.1399 1099.45V1099.41C30.6394 1098.66 29.8891 1097.7 29.8891 1096.54C29.8891 1095.59 30.2489 1094.82 30.9685 1094.24C31.7035 1093.66 32.6375 1093.37 33.7705 1093.37C34.8883 1093.37 35.7687 1093.64 36.4118 1094.17C37.0548 1094.71 37.3764 1095.42 37.3764 1096.31C37.3764 1097.5 36.5802 1098.51 34.9878 1099.32V1099.36C35.8759 1099.82 36.5342 1100.32 36.963 1100.86C37.3917 1101.39 37.606 1102 37.606 1102.67C37.606 1103.62 37.2309 1104.42 36.4807 1105.06C35.7304 1105.69 34.7505 1106 33.5409 1106C32.3619 1106 31.4202 1105.71 30.7159 1105.13C30.0116 1104.55 29.6594 1103.79 29.6594 1102.85C29.6594 1101.44 30.4862 1100.31 32.1399 1099.45ZM33.1504 1099.96C31.7877 1100.65 31.1064 1101.59 31.1064 1102.78C31.1064 1103.47 31.336 1103.99 31.7954 1104.35C32.2547 1104.68 32.8519 1104.85 33.5868 1104.85C34.3677 1104.85 34.9878 1104.67 35.4471 1104.3C35.9218 1103.93 36.1591 1103.46 36.1591 1102.88C36.1591 1102.29 35.9141 1101.79 35.4242 1101.36C34.9495 1100.92 34.1916 1100.45 33.1504 1099.96ZM34.0232 1098.83C35.34 1098.11 35.9983 1097.29 35.9983 1096.35C35.9983 1095.74 35.7763 1095.28 35.3323 1094.98C34.9036 1094.67 34.3447 1094.52 33.6557 1094.52C32.9667 1094.52 32.3925 1094.67 31.9332 1094.98C31.4891 1095.28 31.2671 1095.7 31.2671 1096.24C31.2671 1096.55 31.336 1096.82 31.4738 1097.07C31.6269 1097.3 31.826 1097.51 32.071 1097.71C32.316 1097.91 32.6069 1098.1 32.9437 1098.28C33.2806 1098.45 33.6404 1098.64 34.0232 1098.83Z" fill="black"/>
<path d="M28.1226 1143.47V1146H21.2325V1144.97C22.6718 1143.8 23.8737 1142.62 24.8384 1141.43C25.803 1140.22 26.2853 1139.2 26.2853 1138.37C26.2853 1137.82 26.1551 1137.39 25.8948 1137.07C25.6345 1136.74 25.1522 1136.58 24.4479 1136.58C23.8508 1136.58 23.2536 1136.71 22.6565 1136.97V1138.65H21.4622V1136.31C22.5187 1135.73 23.5675 1135.44 24.6087 1135.44C25.6192 1135.44 26.3925 1135.69 26.9284 1136.19C27.4643 1136.68 27.7322 1137.36 27.7322 1138.24C27.7322 1139.23 27.2422 1140.34 26.2623 1141.57C25.2977 1142.79 24.2336 1143.87 23.0699 1144.81V1144.85H26.9284V1143.47H28.1226ZM30.4173 1147.03C30.9073 1147.11 31.3284 1147.15 31.6805 1147.15C33.1045 1147.15 34.1839 1146.69 34.9189 1145.77C35.6538 1144.84 36.0443 1143.51 36.0902 1141.8L36.0443 1141.77C35.2328 1142.6 34.2452 1143.01 33.0815 1143.01C32.025 1143.01 31.1599 1142.68 30.4862 1142C29.8278 1141.33 29.4987 1140.47 29.4987 1139.43C29.4987 1138.3 29.8585 1137.35 30.5781 1136.58C31.2977 1135.82 32.2394 1135.44 33.4031 1135.44C34.7045 1135.44 35.7151 1135.94 36.4347 1136.95C37.1697 1137.95 37.5371 1139.37 37.5371 1141.22C37.5371 1143.4 37.0166 1145.12 35.9754 1146.39C34.9342 1147.66 33.5026 1148.3 31.6805 1148.3C31.3131 1148.3 30.892 1148.26 30.4173 1148.18V1147.03ZM36.0902 1140.65C36.0137 1139.45 35.7457 1138.48 35.2864 1137.73C34.8423 1136.97 34.1993 1136.58 33.3571 1136.58C32.6528 1136.58 32.071 1136.82 31.6116 1137.3C31.1676 1137.77 30.9456 1138.43 30.9456 1139.27C30.9456 1140.05 31.1523 1140.68 31.5657 1141.15C31.9944 1141.63 32.5839 1141.87 33.3342 1141.87C34.36 1141.87 35.2787 1141.46 36.0902 1140.65Z" fill="black"/>
<path d="M20.7732 1186.73C21.6459 1187 22.534 1187.13 23.4374 1187.13C24.4938 1187.13 25.2977 1186.91 25.8489 1186.48C26.4001 1186.07 26.6757 1185.44 26.6757 1184.6C26.6757 1183.8 26.4078 1183.22 25.8719 1182.85C25.3513 1182.49 24.5627 1182.3 23.5063 1182.3H22.8402V1181.18H23.2996C24.2182 1181.18 24.9302 1180.95 25.4355 1180.49C25.9561 1180.03 26.2164 1179.39 26.2164 1178.58C26.2164 1177.94 26.0403 1177.45 25.6881 1177.11C25.336 1176.76 24.7848 1176.58 24.0345 1176.58C23.3608 1176.58 22.7483 1176.7 22.1971 1176.93V1178.42H21.0028V1176.24C22.0134 1175.7 23.0546 1175.44 24.1264 1175.44C25.2288 1175.44 26.0939 1175.72 26.7217 1176.28C27.3494 1176.85 27.6633 1177.59 27.6633 1178.49C27.6633 1179.85 26.9284 1180.87 25.4585 1181.54V1181.59C27.2346 1181.97 28.1226 1182.98 28.1226 1184.6C28.1226 1185.13 28.0155 1185.62 27.8011 1186.07C27.6021 1186.53 27.3035 1186.92 26.9054 1187.24C26.5073 1187.58 26.0097 1187.84 25.4125 1188.02C24.8154 1188.2 24.134 1188.3 23.3685 1188.3C22.4498 1188.3 21.5847 1188.17 20.7732 1187.93V1186.73ZM29.7283 1180.86C29.7283 1179.16 30.0881 1177.83 30.8078 1176.88C31.5427 1175.92 32.5227 1175.44 33.7476 1175.44C34.8806 1175.44 35.7916 1175.9 36.4807 1176.84C37.185 1177.75 37.5371 1179.05 37.5371 1180.72C37.5371 1182.37 37.1773 1183.7 36.4577 1184.71C35.7534 1185.72 34.7964 1186.23 33.5868 1186.23C32.4231 1186.23 31.4891 1185.74 30.7848 1184.76C30.0805 1183.78 29.7283 1182.48 29.7283 1180.86ZM31.1753 1180.76C31.1753 1182.16 31.3896 1183.23 31.8183 1183.98C32.2624 1184.71 32.8595 1185.08 33.6098 1185.08C34.406 1185.08 35.0184 1184.71 35.4471 1183.96C35.8759 1183.19 36.0902 1182.11 36.0902 1180.72C36.0902 1179.39 35.8835 1178.37 35.4701 1177.66C35.072 1176.94 34.4672 1176.58 33.6557 1176.58C32.8748 1176.58 32.2624 1176.94 31.8183 1177.64C31.3896 1178.33 31.1753 1179.37 31.1753 1180.76Z" fill="black"/>
</svg>
