<svg width="144" height="104" viewBox="0 0 144 104" fill="none" xmlns="http://www.w3.org/2000/svg">
<path d="M142.801 98.2605C143.273 98.0242 140.201 101.51 136.301 102.574C134.706 102.987 130.924 103.756 128.265 102.337C127.379 101.983 126.552 101.333 125.902 100.329C119.58 91.1111 126.906 80.3573 124.661 77.6394C124.366 77.4621 124.011 77.2849 123.538 77.2258C120.643 77.0485 118.043 79.471 116.507 81.48C116.507 86.8568 116.507 92.8246 116.507 97.0197C116.507 97.6106 116.507 98.2605 116.507 98.7923C116.507 100.092 118.043 102.397 118.871 102.515C118.871 102.633 118.871 103.165 118.871 103.165H102.976C102.976 103.165 102.976 102.633 102.976 102.515C103.685 102.397 105.104 100.269 105.281 99.0286C105.281 92.47 105.281 79.8847 105.281 73.5033C104.572 68.6583 101.972 68.4219 101.972 68.4219V67.772C110.48 67.772 114.616 63.2814 115.857 61.9224C116.212 61.9224 116.507 61.9224 116.507 61.9224V70.0172C116.507 71.3762 116.507 73.5624 116.507 76.2213C116.507 77.2258 116.507 78.2893 116.507 79.3529C118.693 76.7531 122.652 73.7397 126.729 73.3261C126.729 73.3261 138.546 72.6761 136.065 83.0753C133.76 92.7064 134.883 97.197 138.96 98.6741C139.964 98.8514 141.205 98.7923 142.801 98.2605Z" fill="#E61425"/>
<path d="M98.1394 92.5373C98.4939 91.001 100.089 91.5328 99.912 92.7736C99.203 99.214 93.058 104 86.204 104C77.4592 104 70.3098 97.2642 70.3098 88.933C70.3098 80.6609 77.4592 73.9251 86.204 73.9251C93.9443 73.9251 101.862 80.5427 97.6076 86.7468C94.5351 91.1192 84.0178 93.2463 86.0858 85.8605C88.2129 78.1202 85.9676 75.6977 82.6588 76.643C79.1727 77.6475 77.9319 83.9697 80.1181 90.7056C83.5451 101.164 96.3077 99.5685 98.1394 92.5373Z" fill="#F2B505"/>
<path d="M55.7169 104C51.4758 104 48.2734 103.163 46.0808 101.49C43.8592 99.8455 42.6187 98.2298 42.3013 96.6719C41.9839 95.114 41.8108 93.9599 41.8108 93.2387C41.8108 91.7096 42.157 90.2382 42.8495 88.8534C44.4363 85.7086 47.1194 84.1218 50.87 84.1218C52.6876 84.1218 54.736 84.5835 57.0152 85.4778C57.1594 85.5355 57.2748 85.5644 57.3614 85.5644C57.5633 85.5644 57.6787 85.4778 57.6787 85.3336C57.6787 85.2182 57.5345 85.0451 57.246 84.8431C56.3516 84.2949 55.111 83.8622 53.5242 83.5448C51.9086 83.2275 50.293 82.9967 48.7062 82.9101C46.2539 82.7081 44.494 81.958 43.4265 80.6597C42.359 79.3615 41.8108 78.0343 41.8108 76.6783C41.8108 74.2837 43.1091 72.2353 45.7057 70.5331C47.8695 69.1194 51.0431 68.3693 55.2841 68.2251H55.5726C57.1017 68.2251 58.4289 68.3693 59.6118 68.6578C60.7946 68.9463 61.8333 69.2637 62.7853 69.6099C64.3144 70.1581 65.4396 70.4466 66.132 70.4466C66.5359 70.4466 66.9398 70.3889 67.3149 70.2735C66.0743 73.3894 64.7472 75.4666 63.3623 76.4764C61.9487 77.4862 60.6215 78.0055 59.3521 78.0055C59.0059 78.0055 58.6597 77.9766 58.3135 77.9189C56.6978 77.6304 55.1399 76.9091 53.6685 75.7263C52.1971 74.5434 50.8988 73.2162 49.7736 71.6872C49.4563 71.2832 49.2255 71.0813 49.0524 71.0813C48.9658 71.0813 48.9081 71.1101 48.8793 71.1678C48.7927 71.2832 48.735 71.4564 48.735 71.716C48.735 71.8891 48.7639 72.0911 48.7927 72.3219C49.4563 75.0915 50.5238 77.1688 51.9375 78.5536C53.3511 79.9385 54.7937 81.0348 56.3228 81.8715C57.1017 82.3331 57.8519 82.7947 58.5154 83.2852C59.179 83.7756 59.756 84.3526 60.2465 85.0162C60.4773 85.3624 60.5927 85.6798 60.5927 85.9683C60.5927 86.1702 60.535 86.3722 60.3907 86.5742C60.1311 86.9492 59.7849 87.1512 59.2944 87.1512H59.0924C58.5731 87.0935 58.0827 87.0646 57.621 87.0646C55.5726 87.0646 53.957 87.6416 52.7164 88.7668C51.1873 90.1805 50.3507 91.5076 50.1487 92.8059C49.9467 94.1042 49.8313 95.0274 49.8313 95.5756C49.8313 96.9893 50.1487 98.2875 50.7834 99.4704C51.6489 101.115 53.1203 101.98 55.1687 102.096C56.8421 102.067 58.1115 101.346 59.0059 99.9609C59.8714 98.6049 60.4196 97.1335 60.6792 95.5756C60.9389 94.0176 61.0543 92.7194 61.0543 91.6519L61.0254 90.5267C61.0254 90.2382 61.1408 90.0939 61.3428 90.0939C61.4582 90.0939 61.689 90.1805 62.0064 90.3536C63.5932 91.248 65.0357 92.0558 66.3051 92.8348C67.1418 93.3252 67.69 93.7003 68.0073 93.9311C67.4592 96.1237 66.5071 97.9702 65.1222 99.4704C63.7086 101 62.1795 102.125 60.4773 102.875C58.7751 103.625 57.1883 104 55.7169 104Z" fill="#F55FC0"/>
<path d="M21.6847 71.6872C21.0938 72.3174 20.4636 72.9674 19.7939 73.637C19.1243 74.2673 18.3365 74.8581 17.4305 75.4096C16.5639 75.9217 15.5594 76.355 14.4171 76.7095C13.2747 77.064 11.9748 77.2413 10.5174 77.2413L10.4583 67.3822H18.4043C25.9511 66.5228 30.2022 66.5229 37.8152 67.3822H41.774L41.8108 73.8944C41.2665 74.5339 41.2636 75.2478 41.1066 76.1984C40.2219 76.1609 39.4005 76.0473 38.6425 75.8578C37.6971 75.5821 36.8305 75.2276 36.0427 74.7943C35.2548 74.3216 34.5261 73.8095 33.8565 73.258C33.2262 72.7066 32.6353 72.1354 32.0839 71.5445C31.4536 73.0808 30.7052 74.42 29.8386 75.5624C29.0114 76.7047 28.2039 77.788 27.4161 78.8121C26.6676 79.7969 26.0177 80.7817 25.4662 81.7665C24.9147 82.7512 24.639 83.8345 24.639 85.0162C24.639 86.5918 25.2157 86.8426 26.0065 87.164C26.9519 88.4639 27.9675 89.2245 29.0705 90.7213C30.2128 92.2182 31.237 93.9317 32.143 95.8619C33.049 97.7526 33.5019 100.077 33.5019 102.834H21.6847V71.6872Z" fill="#0265DE"/>
<path d="M127.599 70.9655C126.82 70.9655 126.07 70.879 125.349 70.677C124.627 70.5039 124.05 70.2442 123.56 69.8692C122.839 69.2922 122.262 68.542 121.829 67.6188C121.396 66.6956 121.165 65.6858 121.165 64.5606C121.165 63.6951 121.31 62.8007 121.627 61.8775C122.521 59.5695 124.195 57.7807 126.705 56.5113C129.215 55.2418 131.696 54.6071 134.206 54.6071C134.552 54.6071 135.216 54.6648 136.168 54.7514C136.485 54.7514 136.629 54.6071 136.629 54.3475C136.629 53.3954 136.37 52.3568 135.85 51.2316C135.389 50.2507 134.783 49.3851 134.004 48.6639C133.225 47.9426 132.302 47.5964 131.292 47.5964C130.542 47.5964 129.734 48.1446 128.869 49.212C128.061 50.2218 127.311 51.2893 126.589 52.4145C126.07 53.2223 125.608 53.9147 125.204 54.4629C124.772 55.011 124.426 55.2995 124.166 55.2995C123.964 55.2995 123.791 55.0687 123.675 54.6071C123.647 54.5494 123.647 54.4917 123.647 54.4052C123.387 53.28 123.127 51.924 122.839 50.3372C122.694 49.616 122.637 49.1543 122.637 48.9524C123.647 48.058 124.974 47.3367 126.647 46.8174C128.292 46.2981 130.051 46.0385 131.869 46.0385C134.956 46.0385 137.524 46.7309 139.572 48.1446C141.909 49.7602 143.092 52.1548 143.092 55.2995L143.063 55.9631C142.919 58.6462 142.832 60.9831 142.832 63.0315C142.832 66.0609 143.034 68.5997 143.409 70.6193H132.792C133.052 70.2442 133.225 69.7826 133.312 69.2922C133.312 69.1768 133.283 69.119 133.225 69.119C133.196 69.119 133.138 69.1479 133.11 69.1768C133.052 69.2345 132.994 69.2922 132.965 69.321C132.908 69.3499 132.879 69.3787 132.85 69.4076C132.302 69.898 131.523 70.3019 130.571 70.5616C129.619 70.8212 128.609 70.9655 127.599 70.9655ZM131.696 67.9073C132.186 67.9073 132.648 67.7631 133.11 67.4457C133.571 67.1572 133.917 66.811 134.148 66.3782C134.725 65.2531 135.245 63.8105 135.677 62.0506C136.11 60.2907 136.312 58.877 136.312 57.8673C136.312 57.4922 136.254 57.1171 136.11 56.7998C135.966 56.4824 135.591 56.3382 134.985 56.3093C133.975 56.3093 133.023 56.7132 132.158 57.5211C131.292 58.3577 130.6 59.3675 130.08 60.5504C129.561 61.7621 129.301 62.945 129.301 64.1279C129.301 65.3108 129.619 66.3494 130.253 67.2149C130.686 67.6765 131.177 67.9073 131.696 67.9073Z" fill="#0265DE"/>
<path d="M98.0626 65.8222C97.5112 65.8222 96.9597 65.7828 96.4082 65.704C95.8567 65.6646 95.3053 65.6055 94.7538 65.5267L97.8854 49.6325C98.2793 47.466 98.6929 45.1813 99.1262 42.7785C99.5989 40.3363 100.052 37.9334 100.485 35.57C100.918 33.1671 101.293 30.9415 101.608 28.8932C101.962 26.8449 102.238 25.1117 102.435 23.6936C104.129 23.3785 105.842 23.083 107.576 22.8073C109.309 22.5316 111.081 22.3937 112.893 22.3937C115.808 22.3937 118.113 23.0043 119.806 24.2254C121.5 25.4071 122.721 26.9827 123.47 28.9523C124.218 30.8824 124.592 33.0096 124.592 35.3336C124.592 37.4213 124.297 39.6272 123.706 41.9513C123.115 44.236 122.268 46.5206 121.165 48.8053C120.102 51.0506 118.822 53.1777 117.325 55.1866C115.001 58.2985 112.165 60.8589 108.816 62.8678C105.508 64.8374 101.923 65.8222 98.0626 65.8222ZM105.094 58.3773C106.473 57.4713 107.772 56.0926 108.994 54.2412C110.254 52.3899 111.436 50.1643 112.539 47.5645C113.524 45.1616 114.292 42.8967 114.843 40.7696C115.395 38.6031 115.67 36.8108 115.67 35.3927C115.67 33.9352 115.257 32.7929 114.43 31.9657C113.642 31.1385 112.381 30.7249 110.648 30.7249C110.018 34.1125 109.368 37.2441 108.698 40.1196C108.068 42.9951 107.438 45.8904 106.807 48.8053C106.217 51.7202 105.645 54.9109 105.094 58.3773Z" fill="#0DA144"/>
<path d="M65.1222 25.0063H81.1937C88.8355 25.1244 92.6565 29.0635 92.6565 36.8235V38.0053H69.2583C68.9432 38.3598 68.6674 38.7143 68.4311 39.0688C68.2341 39.3839 68.1356 39.7582 68.1356 40.1915C68.1356 40.8217 68.3523 41.4126 68.7856 41.964C69.2189 42.4761 69.7507 43.0079 70.3809 43.5594C71.0506 44.0715 71.7596 44.6426 72.508 45.2729C73.2958 45.8637 74.0049 46.5531 74.6351 47.3409C75.3048 48.0893 75.8366 48.9756 76.2305 49.9998C76.6638 50.9846 76.8804 52.1269 76.8804 53.4268C78.2985 53.4268 79.3029 52.9935 79.8938 52.1269C80.5241 51.2603 80.918 50.2558 81.0755 49.1135C81.2331 47.9318 81.2331 46.75 81.0755 45.5683C80.9574 44.3472 80.8983 43.3821 80.8983 42.6731H92.7155C92.8337 44.682 92.5777 46.4349 91.9474 47.9318C91.3172 49.4286 90.4112 50.6694 89.2295 51.6542C88.0871 52.639 86.7281 53.3874 85.1525 53.8995C83.5769 54.3722 81.9028 54.5888 80.1302 54.5494H65.1813L65.1222 25.0063ZM80.8392 36.8235C80.8392 36.1145 80.8983 35.1691 81.0164 33.9874C81.174 32.7663 81.174 31.5845 81.0164 30.4422C80.8983 29.2605 80.5438 28.256 79.9529 27.4288C79.362 26.5622 78.3576 26.1289 76.9395 26.1289C76.9395 27.6258 76.7228 28.9257 76.2896 30.0286C75.8956 31.1315 75.3639 32.0966 74.6942 32.9238C74.064 33.751 73.3746 34.4798 72.6262 35.11C71.9172 35.7009 71.2278 36.2721 70.5582 36.8235H80.8392Z" fill="#F55FC0"/>
<path d="M18.5531 66.5312V66.1767C22.6891 61.1543 22.6301 35.57 22.6301 28.2433V24.2254C22.6301 21.0938 22.6301 17.9032 22.5119 14.7716C22.2755 9.33564 22.0983 1.18173 14.8307 1.18173C11.5809 1.18173 9.15838 3.13158 9.15838 6.55858C9.15838 9.27655 11.2264 11.5809 14.0035 11.5809C14.7125 11.5809 15.4806 11.4037 16.1306 11.0491L16.3078 11.5809C14.4171 14.1807 11.0491 15.2443 7.97665 15.2443C3.54518 15.2443 0 12.8808 0 8.15391C0 1.71351 8.03574 0 13.1172 0C18.9667 0 24.7572 1.00447 30.6067 1.00447C35.9245 1.00447 41.2422 0.236346 46.56 0.236346C56.3683 0.236346 61.9815 7.26762 61.9815 16.7214C61.9815 24.1663 58.0228 32.9702 50.0461 34.6246C53.7095 43.4284 64.0496 68.8356 75.1578 68.8356C78.2894 68.8356 80.7119 66.5312 80.7119 63.3996C80.7119 60.0908 77.9939 58.6136 74.9805 58.85V58.5545C76.694 57.3728 78.8211 56.7229 80.8892 56.7229C84.7298 56.7229 89.1612 58.4955 89.1612 62.986C89.1612 67.9493 84.0798 70.5491 79.7074 70.5491C75.6305 70.5491 71.7308 69.3083 67.772 68.3629C63.3405 67.2993 58.7909 66.5903 54.2412 66.5903C52.4686 66.5903 50.7551 66.7085 48.9826 66.8857C48.8644 61.0952 40.1787 35.3336 33.7383 35.3336C33.7974 41.4786 33.9155 61.9225 37.8152 66.1767V66.5312C34.5655 66.1767 31.3157 65.9403 28.066 65.9403C24.8753 65.9403 21.6847 66.1767 18.5531 66.5312ZM33.7383 33.6201V33.7974C34.2701 33.8565 34.7428 33.8565 35.2745 33.8565C44.8465 33.8565 49.6916 26.2934 49.6916 17.3714C49.6916 11.4627 46.8554 2.00894 39.5287 2.00894C35.2745 2.00894 33.9746 4.66782 33.9746 8.50843C33.9746 16.8987 33.7383 25.2299 33.7383 33.6201Z" fill="#F2B505"/>
</svg>
