<svg width="330" height="83" viewBox="0 0 330 83" fill="none" xmlns="http://www.w3.org/2000/svg">
<path d="M329.186 59.3789C329.739 59.1025 326.146 63.18 321.584 64.424C319.718 64.9078 315.295 65.8062 312.185 64.1476C311.149 63.7329 310.181 62.9727 309.421 61.7978C302.026 51.0165 310.596 38.4383 307.969 35.2592C307.624 35.0519 307.209 34.8446 306.656 34.7755C303.27 34.5681 300.229 37.4017 298.432 39.7514C298.432 46.0405 298.432 53.0207 298.432 57.9276C298.432 58.6187 298.432 59.3789 298.432 60.0009C298.432 61.5214 300.229 64.2167 301.197 64.3549C301.197 64.4931 301.197 65.1151 301.197 65.1151H282.606C282.606 65.1151 282.606 64.4931 282.606 64.3549C283.435 64.2167 285.094 61.7287 285.301 60.2774C285.301 52.6061 285.301 37.8854 285.301 30.4215C284.472 24.7544 281.431 24.4779 281.431 24.4779V23.7177C291.383 23.7177 296.221 18.4653 297.672 16.8758C298.087 16.8758 298.432 16.8758 298.432 16.8758V26.3439C298.432 27.9335 298.432 30.4906 298.432 33.6006C298.432 34.7755 298.432 36.0195 298.432 37.2635C300.989 34.2226 305.62 30.6979 310.388 30.2141C310.388 30.2141 324.211 29.4539 321.308 41.6174C318.613 52.8825 319.926 58.1349 324.694 59.8627C325.869 60.07 327.32 60.0009 329.186 59.3789Z" fill="#E61425"/>
<path d="M279.358 51.7076C279.772 49.9108 281.638 50.5327 281.431 51.9841C280.602 59.5172 273.414 65.1151 265.397 65.1151C255.169 65.1151 246.806 57.2365 246.806 47.4919C246.806 37.8164 255.169 29.9377 265.397 29.9377C274.451 29.9377 283.712 37.6781 278.736 44.9348C275.142 50.049 262.84 52.537 265.259 43.8981C267.747 34.8446 265.121 32.011 261.251 33.1168C257.173 34.2917 255.722 41.6866 258.279 49.5652C262.287 61.7978 277.215 59.9318 279.358 51.7076Z" fill="#F2B505"/>
<path d="M229.526 65.1151C224.566 65.1151 220.82 64.1365 218.255 62.1793C215.657 60.2558 214.206 58.366 213.834 56.5438C213.463 54.7215 213.261 53.3717 213.261 52.528C213.261 50.7395 213.666 49.0185 214.476 47.3987C216.332 43.7205 219.47 41.8645 223.857 41.8645C225.983 41.8645 228.379 42.4044 231.045 43.4505C231.213 43.518 231.348 43.5517 231.45 43.5517C231.686 43.5517 231.821 43.4505 231.821 43.2818C231.821 43.1468 231.652 42.9443 231.315 42.7081C230.269 42.0669 228.818 41.5607 226.962 41.1895C225.072 40.8183 223.182 40.5484 221.326 40.4471C218.458 40.2109 216.399 39.3335 215.151 37.815C213.902 36.2964 213.261 34.7441 213.261 33.1581C213.261 30.3572 214.779 27.9613 217.816 25.9703C220.347 24.3168 224.059 23.4394 229.02 23.2707H229.357C231.146 23.2707 232.698 23.4394 234.082 23.7769C235.465 24.1143 236.68 24.4855 237.794 24.8905C239.582 25.5316 240.898 25.8691 241.708 25.8691C242.181 25.8691 242.653 25.8016 243.092 25.6666C241.641 29.3111 240.089 31.7408 238.469 32.9219C236.815 34.103 235.263 34.7104 233.778 34.7104C233.373 34.7104 232.968 34.6767 232.563 34.6092C230.674 34.2717 228.851 33.4281 227.13 32.0445C225.409 30.6609 223.891 29.1086 222.575 27.3201C222.203 26.8477 221.933 26.6115 221.731 26.6115C221.63 26.6115 221.562 26.6452 221.528 26.7127C221.427 26.8477 221.36 27.0502 221.36 27.3539C221.36 27.5564 221.394 27.7926 221.427 28.0625C222.203 31.3021 223.452 33.7318 225.106 35.3516C226.759 36.9714 228.446 38.2537 230.235 39.2323C231.146 39.7722 232.023 40.3122 232.799 40.8858C233.576 41.4595 234.251 42.1344 234.824 42.9106C235.094 43.3155 235.229 43.6867 235.229 44.0242C235.229 44.2604 235.162 44.4966 234.993 44.7328C234.689 45.1715 234.284 45.4077 233.711 45.4077H233.474C232.867 45.3403 232.293 45.3065 231.753 45.3065C229.357 45.3065 227.468 45.9814 226.017 47.2975C224.228 48.951 223.25 50.5033 223.013 52.0219C222.777 53.5404 222.642 54.6203 222.642 55.2614C222.642 56.915 223.013 58.4335 223.756 59.8171C224.768 61.7406 226.489 62.7529 228.885 62.8879C230.842 62.8542 232.327 62.0105 233.373 60.3907C234.386 58.8047 235.027 57.0837 235.33 55.2614C235.634 53.4392 235.769 51.9206 235.769 50.672L235.735 49.356C235.735 49.0185 235.87 48.8498 236.107 48.8498C236.242 48.8498 236.511 48.951 236.883 49.1535C238.739 50.1996 240.426 51.1445 241.911 52.0556C242.889 52.6293 243.531 53.068 243.902 53.3379C243.261 55.9026 242.147 58.0623 240.527 59.8171C238.874 61.6056 237.085 62.9217 235.094 63.7991C233.103 64.6764 231.247 65.1151 229.526 65.1151Z" fill="#F55FC0"/>
<path d="M185.5 28.7514C184.809 29.4886 184.072 30.2488 183.289 31.0321C182.505 31.7692 181.584 32.4604 180.524 33.1054C179.511 33.7043 178.336 34.2112 176.999 34.6258C175.663 35.0405 174.143 35.2478 172.438 35.2478L172.369 23.7161H181.663C190.49 22.7108 195.463 22.711 204.367 23.7161H208.998L209.041 31.3331C208.404 32.0811 208.401 32.9162 208.217 34.028C207.182 33.9841 206.222 33.8513 205.335 33.6297C204.229 33.3071 203.216 32.8925 202.294 32.3857C201.373 31.8328 200.52 31.2338 199.737 30.5888C199 29.9437 198.309 29.2757 197.664 28.5846C196.926 30.3815 196.051 31.9479 195.037 33.2841C194.07 34.6202 193.125 35.8873 192.204 37.0852C191.328 38.2371 190.568 39.3889 189.923 40.5408C189.278 41.6926 188.956 42.9596 188.956 44.3418C188.956 46.1848 189.63 46.4781 190.555 46.854C191.661 48.3745 192.849 49.2641 194.139 51.0149C195.475 52.7657 196.673 54.7699 197.733 57.0275C198.792 59.2391 199.322 61.9574 199.322 65.1826H185.5V28.7514Z" fill="#0265DE"/>
<path d="M152.219 65.5876C151.308 65.5876 150.431 65.4863 149.587 65.2501C148.743 65.0476 148.068 64.7439 147.495 64.3052C146.651 63.6303 145.976 62.7529 145.47 61.6731C144.964 60.5932 144.694 59.4121 144.694 58.0961C144.694 57.0837 144.863 56.0376 145.234 54.9577C146.28 52.2581 148.237 50.1659 151.173 48.6811C154.109 47.1963 157.011 46.4539 159.947 46.4539C160.352 46.4539 161.128 46.5213 162.242 46.6226C162.613 46.6226 162.782 46.4539 162.782 46.1502C162.782 45.0365 162.478 43.8217 161.87 42.5056C161.33 41.3583 160.622 40.3459 159.711 39.5023C158.8 38.6586 157.72 38.2537 156.539 38.2537C155.661 38.2537 154.716 38.8949 153.704 40.1434C152.759 41.3245 151.882 42.5731 151.038 43.8892C150.431 44.8341 149.891 45.644 149.418 46.2851C148.912 46.9263 148.507 47.2637 148.203 47.2637C147.967 47.2637 147.765 46.9938 147.63 46.4539C147.596 46.3864 147.596 46.3189 147.596 46.2176C147.292 44.9016 146.989 43.3155 146.651 41.4595C146.482 40.6159 146.415 40.076 146.415 39.8397C147.596 38.7936 149.148 37.95 151.106 37.3426C153.029 36.7351 155.088 36.4314 157.214 36.4314C160.824 36.4314 163.828 37.2413 166.224 38.8949C168.957 40.7846 170.341 43.5855 170.341 47.2637L170.307 48.0399C170.138 51.1782 170.037 53.9116 170.037 56.3075C170.037 59.8508 170.273 62.8204 170.712 65.1826H158.293C158.597 64.7439 158.8 64.204 158.901 63.6303C158.901 63.4954 158.867 63.4279 158.8 63.4279C158.766 63.4279 158.698 63.4616 158.665 63.4953C158.597 63.5628 158.53 63.6303 158.496 63.6641C158.428 63.6978 158.395 63.7316 158.361 63.7653C157.72 64.339 156.809 64.8114 155.695 65.1151C154.581 65.4188 153.4 65.5876 152.219 65.5876ZM157.011 62.0105C157.585 62.0105 158.125 61.8418 158.665 61.4706C159.204 61.1332 159.609 60.7282 159.879 60.222C160.554 58.906 161.162 57.2187 161.668 55.1602C162.174 53.1017 162.41 51.4482 162.41 50.2671C162.41 49.8284 162.343 49.3897 162.174 49.0185C162.005 48.6473 161.567 48.4786 160.858 48.4448C159.677 48.4448 158.563 48.9173 157.551 49.8622C156.539 50.8408 155.729 52.0219 155.121 53.4054C154.514 54.8227 154.21 56.2063 154.21 57.5899C154.21 58.9734 154.581 60.1883 155.324 61.2006C155.83 61.7406 156.404 62.0105 157.011 62.0105Z" fill="#0265DE"/>
<path d="M114.7 64.3522C114.055 64.3522 113.41 64.3061 112.765 64.214C112.12 64.1679 111.475 64.0988 110.83 64.0067L114.492 45.4158C114.953 42.8818 115.437 40.2095 115.944 37.399C116.497 34.5424 117.027 31.7319 117.533 28.9675C118.04 26.157 118.478 23.5538 118.846 21.1579C119.261 18.7621 119.584 16.7348 119.814 15.0762C121.795 14.7076 123.799 14.362 125.827 14.0395C127.854 13.717 129.927 13.5558 132.047 13.5558C135.456 13.5558 138.151 14.2699 140.133 15.6982C142.114 17.0804 143.542 18.9234 144.417 21.2271C145.293 23.4847 145.731 25.9727 145.731 28.691C145.731 31.1329 145.385 33.7131 144.694 36.4314C144.003 39.1037 143.012 41.776 141.722 44.4483C140.478 47.0745 138.981 49.5625 137.23 51.9123C134.512 55.5521 131.194 58.5469 127.278 60.8967C123.408 63.2004 119.215 64.3522 114.7 64.3522ZM122.924 55.6442C124.537 54.5845 126.057 52.972 127.485 50.8065C128.96 48.641 130.342 46.0378 131.632 42.997C132.784 40.1865 133.682 37.5372 134.327 35.0492C134.972 32.5152 135.295 30.4188 135.295 28.7601C135.295 27.0554 134.811 25.7193 133.844 24.7517C132.922 23.7842 131.448 23.3004 129.42 23.3004C128.683 27.2627 127.923 30.9256 127.14 34.289C126.403 37.6524 125.665 41.0388 124.928 44.4483C124.237 47.8578 123.569 51.5897 122.924 55.6442Z" fill="#0DA144"/>
<path d="M76.1708 29.2488H94.9689C103.907 29.387 108.376 33.9944 108.376 43.071V44.4532H81.0086C80.64 44.8679 80.3174 45.2825 80.041 45.6972C79.8106 46.0658 79.6955 46.5035 79.6955 47.0103C79.6955 47.7475 79.9489 48.4386 80.4557 49.0836C80.9625 49.6826 81.5845 50.3046 82.3217 50.9496C83.1049 51.5486 83.9342 52.2166 84.8096 52.9538C85.7311 53.6449 86.5605 54.4512 87.2976 55.3727C88.0809 56.2481 88.7029 57.2848 89.1636 58.4827C89.6704 59.6345 89.9239 60.9707 89.9239 62.4911C91.5825 62.4911 92.7574 61.9843 93.4485 60.9707C94.1857 59.9571 94.6464 58.7822 94.8307 57.446C95.015 56.0638 95.015 54.6816 94.8307 53.2994C94.6925 51.8711 94.6234 50.7423 94.6234 49.9129H108.446C108.584 52.2627 108.284 54.313 107.547 56.0638C106.81 57.8146 105.75 59.2659 104.368 60.4178C103.032 61.5696 101.442 62.445 99.5994 63.044C97.7564 63.5969 95.7983 63.8503 93.725 63.8042H76.2399L76.1708 29.2488ZM94.5543 43.071C94.5543 42.2416 94.6234 41.1359 94.7616 39.7537C94.9459 38.3254 94.9459 36.9431 94.7616 35.607C94.6234 34.2248 94.2087 33.0499 93.5176 32.0824C92.8265 31.0687 91.6516 30.5619 89.993 30.5619C89.993 32.3127 89.7396 33.8332 89.2327 35.1232C88.772 36.4133 88.15 37.5421 87.3668 38.5097C86.6296 39.4772 85.8233 40.3296 84.9479 41.0668C84.1185 41.7579 83.3122 42.4259 82.529 43.071H94.5543Z" fill="#F55FC0"/>
<path d="M21.7008 77.8188V77.4041C26.5386 71.5297 26.4694 41.6047 26.4694 33.035V28.3354C26.4694 24.6726 26.4694 20.9406 26.3312 17.2777C26.0548 10.9195 25.8475 1.38222 17.3468 1.38222C13.5457 1.38222 10.7122 3.66288 10.7122 7.6713C10.7122 10.8504 13.1311 13.5457 16.3793 13.5457C17.2086 13.5457 18.107 13.3384 18.8673 12.9237L19.0746 13.5457C16.863 16.5866 12.9237 17.8306 9.32996 17.8306C4.14665 17.8306 0 15.0662 0 9.5373C0 2.00422 9.39907 0 15.3426 0C22.1846 0 28.9574 1.17489 35.7994 1.17489C42.0194 1.17489 48.2394 0.276444 54.4593 0.276444C65.9317 0.276444 72.4973 8.50063 72.4973 19.5584C72.4973 28.2663 67.8668 38.5638 58.5369 40.499C62.8217 50.7965 74.9161 80.5141 87.909 80.5141C91.5718 80.5141 94.4054 77.8188 94.4054 74.1559C94.4054 70.2857 91.2263 68.558 87.7016 68.8344V68.4888C89.7059 67.1066 92.1938 66.3464 94.6127 66.3464C99.1049 66.3464 104.288 68.4197 104.288 73.6722C104.288 79.4775 98.3447 82.5183 93.2305 82.5183C88.4619 82.5183 83.9005 81.067 79.2701 79.9612C74.0868 78.7172 68.7653 77.8879 63.4437 77.8879C61.3704 77.8879 59.3662 78.0261 57.2929 78.2335C57.1546 71.4606 46.9954 41.3283 39.4623 41.3283C39.5314 48.5158 39.6696 72.4282 44.2309 77.4041V77.8188C40.4298 77.4041 36.6287 77.1277 32.8276 77.1277C29.0957 77.1277 25.3637 77.4041 21.7008 77.8188ZM39.4623 39.3241V39.5314C40.0843 39.6005 40.6372 39.6005 41.2592 39.6005C52.4551 39.6005 58.1222 30.7543 58.1222 20.3186C58.1222 13.4075 54.8049 2.34977 46.2351 2.34977C41.2592 2.34977 39.7387 5.45976 39.7387 9.95196C39.7387 19.7657 39.4623 29.5103 39.4623 39.3241Z" fill="#F2B505"/>
<path d="M118.445 76.9355H117.649V74.975H115.615V74.179H117.649V72.2186H118.445V74.179H120.479V74.975H118.445V76.9355Z" fill="black"/>
<path d="M127.853 76.567V77.3629C127.362 77.6676 126.787 77.8199 126.128 77.8199C125.352 77.8199 124.743 77.5595 124.3 77.0387C123.868 76.5178 123.652 75.7906 123.652 74.8571C123.652 73.8941 123.883 73.1423 124.345 72.6018C124.807 72.0515 125.386 71.7764 126.084 71.7764C126.654 71.7764 127.116 72.0024 127.47 72.4544C127.823 72.9065 128 73.5501 128 74.3854V74.8424H124.566C124.585 75.5302 124.718 76.0658 124.964 76.449C125.219 76.8323 125.622 77.0337 126.173 77.0534C126.782 77.0534 127.342 76.8912 127.853 76.567ZM127.116 74.1348C127.116 73.5747 127.013 73.1669 126.806 72.9114C126.6 72.6461 126.31 72.5134 125.937 72.5134C125.573 72.5134 125.268 72.651 125.023 72.9261C124.777 73.1914 124.63 73.5944 124.581 74.1348H127.116Z" fill="black"/>
<path d="M131.831 69.5653V68.8283H133.6V76.9355H134.337V77.6725H132.76L132.716 77.1713L132.686 77.1566C132.274 77.5988 131.782 77.8199 131.212 77.8199C130.544 77.8199 130.014 77.5496 129.62 77.0092C129.227 76.4687 129.031 75.7612 129.031 74.8866C129.031 73.9629 129.267 73.216 129.738 72.6461C130.21 72.0663 130.819 71.7764 131.566 71.7764C131.94 71.7764 132.313 71.8648 132.686 72.0417L132.716 72.027V69.5653H131.831ZM132.716 72.7198C132.352 72.5822 131.984 72.5134 131.61 72.5134C131.05 72.5134 130.633 72.7001 130.357 73.0735C130.092 73.4371 129.959 74.0071 129.959 74.7834C129.959 75.5302 130.077 76.1002 130.313 76.4933C130.559 76.8863 130.932 77.0829 131.433 77.0829C131.925 77.0829 132.352 76.8863 132.716 76.4933V72.7198Z" fill="black"/>
<path d="M138.907 72.6608H138.17V71.9238H139.792V76.9355H140.529V77.6725H138.981L138.937 77.0387H138.907C138.475 77.5595 137.929 77.8199 137.271 77.8199C136.75 77.8199 136.352 77.6823 136.077 77.4072C135.802 77.132 135.664 76.734 135.664 76.2132V72.6608H134.927V71.9238H136.549V76.0658C136.549 76.4589 136.632 76.7291 136.799 76.8765C136.976 77.0141 137.212 77.0829 137.507 77.0829C138.077 77.0829 138.544 76.8519 138.907 76.3901V72.6608Z" fill="black"/>
<path d="M145.541 77.4514C145.069 77.697 144.553 77.8199 143.993 77.8199C143.197 77.8199 142.568 77.5644 142.106 77.0534C141.644 76.5424 141.413 75.8103 141.413 74.8571C141.413 73.8941 141.654 73.1423 142.136 72.6018C142.627 72.0515 143.261 71.7764 144.037 71.7764C144.578 71.7764 145.079 71.8894 145.541 72.1154V73.5452H144.76V72.6461C144.543 72.5576 144.278 72.5134 143.964 72.5134C143.413 72.5134 143.005 72.6903 142.74 73.044C142.475 73.388 142.342 73.9383 142.342 74.695C142.342 75.5008 142.485 76.0953 142.77 76.4785C143.055 76.8618 143.467 77.0534 144.008 77.0534C144.538 77.0534 145.049 76.9207 145.541 76.6554V77.4514Z" fill="black"/>
<path d="M147.014 72.3512C147.692 71.968 148.384 71.7764 149.092 71.7764C149.701 71.7764 150.168 71.9189 150.492 72.2038C150.826 72.479 150.993 72.9212 150.993 73.5305V76.9355H151.73V77.6725H150.197L150.153 77.0092L150.124 76.9944C149.652 77.5447 149.072 77.8199 148.384 77.8199C147.873 77.8199 147.466 77.6725 147.161 77.3777C146.866 77.073 146.719 76.6898 146.719 76.2279C146.719 75.6089 146.984 75.147 147.515 74.8424C148.055 74.5377 148.836 74.3854 149.858 74.3854H150.109V73.5157C150.109 73.1521 150.021 72.8966 149.844 72.7492C149.677 72.592 149.392 72.5134 148.989 72.5134C148.507 72.5134 148.104 72.592 147.78 72.7492V73.5452H147.014V72.3512ZM149.755 75.0192C149.077 75.0192 148.556 75.1077 148.193 75.2846C147.829 75.4516 147.647 75.7513 147.647 76.1837C147.647 76.4982 147.736 76.7291 147.913 76.8765C148.09 77.0141 148.316 77.0829 148.591 77.0829C149.18 77.0829 149.686 76.8421 150.109 76.3606V75.0192H149.755Z" fill="black"/>
<path d="M156.594 77.4514C156.123 77.697 155.607 77.8199 155.047 77.8199C154.251 77.8199 153.622 77.5644 153.16 77.0534C152.698 76.5424 152.467 75.8103 152.467 74.8571C152.467 73.8941 152.708 73.1423 153.189 72.6018C153.681 72.0515 154.314 71.7764 155.091 71.7764C155.631 71.7764 156.132 71.8894 156.594 72.1154V73.5452H155.813V72.6461C155.597 72.5576 155.331 72.5134 155.017 72.5134C154.467 72.5134 154.059 72.6903 153.794 73.044C153.528 73.388 153.396 73.9383 153.396 74.695C153.396 75.5008 153.538 76.0953 153.823 76.4785C154.108 76.8618 154.521 77.0534 155.061 77.0534C155.592 77.0534 156.103 76.9207 156.594 76.6554V77.4514ZM153.867 79.6624C154.054 79.7017 154.246 79.7214 154.442 79.7214C154.629 79.7214 154.776 79.6821 154.884 79.6035C154.992 79.5347 155.047 79.4118 155.047 79.235C155.047 78.9205 154.766 78.7633 154.206 78.7633L154.649 77.5546H155.327L155.047 78.3211C155.341 78.3898 155.548 78.5078 155.666 78.6748C155.793 78.8517 155.857 79.0482 155.857 79.2644C155.857 79.6084 155.729 79.8835 155.474 80.0899C155.218 80.2963 154.884 80.3994 154.472 80.3994C154.275 80.3994 154.074 80.3749 153.867 80.3257V79.6624Z" fill="black"/>
<path d="M158.067 72.3512C158.745 71.968 159.438 71.7764 160.145 71.7764C160.755 71.7764 161.221 71.9189 161.546 72.2038C161.88 72.479 162.047 72.9212 162.047 73.5305V76.9355H162.784V77.6725H161.251L161.207 77.0092L161.177 76.9944C160.705 77.5447 160.126 77.8199 159.438 77.8199C158.927 77.8199 158.519 77.6725 158.214 77.3777C157.92 77.073 157.772 76.6898 157.772 76.2279C157.772 75.6089 158.037 75.147 158.568 74.8424C159.109 74.5377 159.89 74.3854 160.912 74.3854H161.162V73.5157C161.162 73.1521 161.074 72.8966 160.897 72.7492C160.73 72.592 160.445 72.5134 160.042 72.5134C159.561 72.5134 159.158 72.592 158.833 72.7492V73.5452H158.067V72.3512ZM160.809 75.0192C160.131 75.0192 159.61 75.1077 159.246 75.2846C158.883 75.4516 158.701 75.7513 158.701 76.1837C158.701 76.4982 158.789 76.7291 158.966 76.8765C159.143 77.0141 159.369 77.0829 159.644 77.0829C160.234 77.0829 160.74 76.8421 161.162 76.3606V75.0192H160.809ZM158.362 70.8477V70.096C158.666 69.8798 158.981 69.7717 159.305 69.7717C159.561 69.7717 159.86 69.8601 160.204 70.037C160.45 70.155 160.661 70.2139 160.838 70.2139C161.153 70.2139 161.447 70.096 161.723 69.8601H161.752V70.6119C161.447 70.8281 161.133 70.9362 160.809 70.9362C160.553 70.9362 160.253 70.8477 159.91 70.6709C159.664 70.5529 159.453 70.494 159.276 70.494C158.961 70.494 158.666 70.6119 158.391 70.8477H158.362Z" fill="black"/>
<path d="M163.447 74.8276C163.447 73.8941 163.673 73.1521 164.125 72.6018C164.587 72.0515 165.166 71.7764 165.864 71.7764C166.562 71.7764 167.117 72.0319 167.53 72.5429C167.952 73.0539 168.164 73.7712 168.164 74.695C168.164 75.6383 167.943 76.395 167.5 76.965C167.058 77.5349 166.478 77.8199 165.761 77.8199C165.053 77.8199 164.488 77.5496 164.066 77.0092C163.653 76.4589 163.447 75.7317 163.447 74.8276ZM164.375 74.695C164.375 75.4713 164.498 76.0658 164.744 76.4785C164.999 76.8814 165.363 77.0829 165.835 77.0829C166.277 77.0829 166.621 76.8962 166.866 76.5227C167.112 76.1395 167.235 75.5597 167.235 74.7834C167.235 73.2701 166.753 72.5134 165.79 72.5134C165.329 72.5134 164.975 72.6903 164.729 73.044C164.493 73.388 164.375 73.9383 164.375 74.695Z" fill="black"/>
<path d="M169.843 75.9331C170.295 76.3557 170.521 76.7979 170.521 77.2598C170.521 77.8985 170.147 78.5471 169.4 79.2055L168.944 78.778C169.366 78.3751 169.572 77.9869 169.563 77.6135C169.563 77.3187 169.376 76.9994 169.003 76.6554L169.843 75.9331Z" fill="black"/>
<path d="M176.814 76.9355H176.018V74.975H173.983V74.179H176.018V72.2186H176.814V74.179H178.848V74.975H176.814V76.9355Z" fill="black"/>
<path d="M183.908 77.8199C183.485 77.8199 183.151 77.7118 182.905 77.4956C182.659 77.2696 182.537 76.9404 182.537 76.508V72.6608H181.8V71.9238H182.537V70.5972L183.421 70.435V71.9238H184.748V72.6608H183.421V76.3606C183.421 76.6456 183.475 76.8372 183.583 76.9355C183.701 77.0337 183.853 77.0829 184.04 77.0829C184.276 77.0829 184.512 77.0239 184.748 76.906V77.6283C184.482 77.756 184.202 77.8199 183.908 77.8199Z" fill="black"/>
<path d="M189.755 76.567V77.3629C189.263 77.6676 188.688 77.8199 188.03 77.8199C187.254 77.8199 186.644 77.5595 186.202 77.0387C185.77 76.5178 185.554 75.7906 185.554 74.8571C185.554 73.8941 185.785 73.1423 186.246 72.6018C186.708 72.0515 187.288 71.7764 187.986 71.7764C188.556 71.7764 189.018 72.0024 189.371 72.4544C189.725 72.9065 189.902 73.5501 189.902 74.3854V74.8424H186.468C186.487 75.5302 186.62 76.0658 186.866 76.449C187.121 76.8323 187.524 77.0337 188.074 77.0534C188.684 77.0534 189.244 76.8912 189.755 76.567ZM189.018 74.1348C189.018 73.5747 188.914 73.1669 188.708 72.9114C188.502 72.6461 188.212 72.5134 187.838 72.5134C187.475 72.5134 187.17 72.651 186.925 72.9261C186.679 73.1914 186.531 73.5944 186.482 74.1348H189.018Z" fill="black"/>
<path d="M195.06 77.4514C194.588 77.697 194.072 77.8199 193.512 77.8199C192.716 77.8199 192.087 77.5644 191.625 77.0534C191.163 76.5424 190.933 75.8103 190.933 74.8571C190.933 73.8941 191.173 73.1423 191.655 72.6018C192.146 72.0515 192.78 71.7764 193.556 71.7764C194.097 71.7764 194.598 71.8894 195.06 72.1154V73.5452H194.279V72.6461C194.062 72.5576 193.797 72.5134 193.483 72.5134C192.932 72.5134 192.525 72.6903 192.259 73.044C191.994 73.388 191.861 73.9383 191.861 74.695C191.861 75.5008 192.004 76.0953 192.289 76.4785C192.574 76.8618 192.986 77.0534 193.527 77.0534C194.057 77.0534 194.568 76.9207 195.06 76.6554V77.4514Z" fill="black"/>
<path d="M196.09 76.9355H196.827V72.6608H196.09V71.9238H197.653L197.697 72.6903H197.712C198.242 72.081 198.852 71.7764 199.54 71.7764C200.031 71.7764 200.39 71.9189 200.616 72.2038C200.842 72.479 200.955 72.8721 200.955 73.3831V76.9355H201.692V77.6725H199.481V76.9355H200.07V73.501C200.07 73.1079 200.001 72.8475 199.864 72.7198C199.726 72.5822 199.535 72.5134 199.289 72.5134C198.719 72.5134 198.193 72.818 197.712 73.4273V76.9355H198.301V77.6725H196.09V76.9355Z" fill="black"/>
<path d="M202.355 74.8276C202.355 73.8941 202.581 73.1521 203.033 72.6018C203.495 72.0515 204.075 71.7764 204.773 71.7764C205.471 71.7764 206.026 72.0319 206.438 72.5429C206.861 73.0539 207.072 73.7712 207.072 74.695C207.072 75.6383 206.851 76.395 206.409 76.965C205.967 77.5349 205.387 77.8199 204.67 77.8199C203.962 77.8199 203.397 77.5496 202.974 77.0092C202.562 76.4589 202.355 75.7317 202.355 74.8276ZM203.284 74.695C203.284 75.4713 203.407 76.0658 203.653 76.4785C203.908 76.8814 204.272 77.0829 204.743 77.0829C205.186 77.0829 205.529 76.8962 205.775 76.5227C206.021 76.1395 206.144 75.5597 206.144 74.7834C206.144 73.2701 205.662 72.5134 204.699 72.5134C204.237 72.5134 203.883 72.6903 203.638 73.044C203.402 73.388 203.284 73.9383 203.284 74.695Z" fill="black"/>
<path d="M208.03 76.9355H208.767V69.5653H208.03V68.8283H209.651V76.9355H210.388V77.6725H208.03V76.9355Z" fill="black"/>
<path d="M211.194 74.8276C211.194 73.8941 211.42 73.1521 211.872 72.6018C212.333 72.0515 212.913 71.7764 213.611 71.7764C214.309 71.7764 214.864 72.0319 215.277 72.5429C215.699 73.0539 215.91 73.7712 215.91 74.695C215.91 75.6383 215.689 76.395 215.247 76.965C214.805 77.5349 214.225 77.8199 213.508 77.8199C212.8 77.8199 212.235 77.5496 211.813 77.0092C211.4 76.4589 211.194 75.7317 211.194 74.8276ZM212.122 74.695C212.122 75.4713 212.245 76.0658 212.491 76.4785C212.746 76.8814 213.11 77.0829 213.581 77.0829C214.024 77.0829 214.368 76.8962 214.613 76.5227C214.859 76.1395 214.982 75.5597 214.982 74.7834C214.982 73.2701 214.5 72.5134 213.537 72.5134C213.075 72.5134 212.722 72.6903 212.476 73.044C212.24 73.388 212.122 73.9383 212.122 74.695Z" fill="black"/>
<path d="M217.015 73.8548C217.015 73.2455 217.207 72.7492 217.59 72.366C217.974 71.9729 218.465 71.7764 219.064 71.7764C219.281 71.7764 219.477 71.8009 219.654 71.8501C219.811 71.8992 219.988 71.9238 220.185 71.9238H221.585V72.6313H220.745V72.6461C220.931 72.9703 221.025 73.329 221.025 73.7221C221.025 74.3707 220.833 74.8964 220.45 75.2993C220.077 75.7022 219.59 75.9037 218.991 75.9037C218.716 75.9037 218.47 75.8644 218.254 75.7857C218.067 76.0019 217.974 76.2083 217.974 76.4048C217.974 76.5227 218.013 76.6161 218.092 76.6849C218.17 76.7537 218.293 76.7881 218.46 76.7881H219.492C220.14 76.7881 220.637 76.9207 220.981 77.1861C221.334 77.4514 221.511 77.8445 221.511 78.3653C221.511 79.004 221.256 79.515 220.745 79.8983C220.234 80.2815 219.59 80.4731 218.814 80.4731C218.185 80.4731 217.679 80.3257 217.296 80.0309C216.912 79.7361 216.721 79.3578 216.721 78.8959C216.721 78.3653 216.986 77.8788 217.517 77.4366C217.281 77.2401 217.163 76.9846 217.163 76.6702C217.163 76.2771 217.374 75.9037 217.797 75.5499C217.276 75.147 217.015 74.5819 217.015 73.8548ZM218.062 77.6725C217.757 77.9673 217.605 78.3112 217.605 78.7043C217.605 79.0384 217.713 79.2988 217.929 79.4855C218.146 79.6821 218.48 79.7803 218.932 79.7803C219.462 79.7803 219.875 79.6673 220.17 79.4413C220.475 79.2251 220.627 78.9401 220.627 78.5864C220.627 78.2817 220.524 78.0508 220.317 77.8936C220.121 77.7462 219.846 77.6725 219.492 77.6725H218.062ZM217.929 73.7811C217.929 74.2233 218.023 74.5721 218.209 74.8276C218.396 75.0733 218.676 75.1961 219.05 75.1961C219.403 75.1961 219.669 75.0831 219.846 74.8571C220.022 74.6311 220.111 74.2871 220.111 73.8253C220.111 73.3732 220.018 73.044 219.831 72.8377C219.654 72.6215 219.379 72.5134 219.005 72.5134C218.652 72.5134 218.381 72.6166 218.195 72.8229C218.018 73.0293 217.929 73.3487 217.929 73.7811Z" fill="black"/>
<path d="M222.173 76.9355H222.91V72.6608H222.173V71.9238H223.795V76.9355H224.532V77.6725H222.173V76.9355ZM222.66 70.3613C222.66 70.155 222.714 69.9977 222.822 69.8896C222.94 69.7717 223.097 69.7127 223.294 69.7127C223.48 69.7127 223.633 69.7717 223.75 69.8896C223.868 69.9977 223.927 70.1451 223.927 70.3318C223.927 70.5284 223.868 70.6856 223.75 70.8035C223.633 70.9116 223.475 70.9657 223.279 70.9657C223.092 70.9657 222.94 70.9116 222.822 70.8035C222.714 70.6856 222.66 70.5382 222.66 70.3613Z" fill="black"/>
<path d="M225.705 72.3512C226.383 71.968 227.076 71.7764 227.784 71.7764C228.393 71.7764 228.86 71.9189 229.184 72.2038C229.518 72.479 229.685 72.9212 229.685 73.5305V76.9355H230.422V77.6725H228.889L228.845 77.0092L228.816 76.9944C228.344 77.5447 227.764 77.8199 227.076 77.8199C226.565 77.8199 226.157 77.6725 225.853 77.3777C225.558 77.073 225.411 76.6898 225.411 76.2279C225.411 75.6089 225.676 75.147 226.206 74.8424C226.747 74.5377 227.528 74.3854 228.55 74.3854H228.801V73.5157C228.801 73.1521 228.712 72.8966 228.535 72.7492C228.368 72.592 228.083 72.5134 227.681 72.5134C227.199 72.5134 226.796 72.592 226.472 72.7492V73.5452H225.705V72.3512ZM228.447 75.0192C227.769 75.0192 227.248 75.1077 226.885 75.2846C226.521 75.4516 226.339 75.7513 226.339 76.1837C226.339 76.4982 226.428 76.7291 226.604 76.8765C226.781 77.0141 227.007 77.0829 227.283 77.0829C227.872 77.0829 228.378 76.8421 228.801 76.3606V75.0192H228.447Z" fill="black"/>
<path d="M238.272 76.9355H237.476V74.975H235.442V74.179H237.476V72.2186H238.272V74.179H240.306V74.975H238.272V76.9355Z" fill="black"/>
<path d="M246.354 69.5653V68.8283H248.123V76.9355H248.86V77.6725H247.282L247.238 77.1713L247.209 77.1566C246.796 77.5988 246.305 77.8199 245.735 77.8199C245.066 77.8199 244.536 77.5496 244.143 77.0092C243.75 76.4687 243.553 75.7612 243.553 74.8866C243.553 73.9629 243.789 73.216 244.261 72.6461C244.732 72.0663 245.342 71.7764 246.088 71.7764C246.462 71.7764 246.835 71.8648 247.209 72.0417L247.238 72.027V69.5653H246.354ZM247.238 72.7198C246.875 72.5822 246.506 72.5134 246.133 72.5134C245.573 72.5134 245.155 72.7001 244.88 73.0735C244.614 73.4371 244.482 74.0071 244.482 74.7834C244.482 75.5302 244.6 76.1002 244.836 76.4933C245.081 76.8863 245.455 77.0829 245.956 77.0829C246.447 77.0829 246.875 76.8863 247.238 76.4933V72.7198Z" fill="black"/>
<path d="M253.872 76.567V77.3629C253.38 77.6676 252.806 77.8199 252.147 77.8199C251.371 77.8199 250.762 77.5595 250.319 77.0387C249.887 76.5178 249.671 75.7906 249.671 74.8571C249.671 73.8941 249.902 73.1423 250.364 72.6018C250.825 72.0515 251.405 71.7764 252.103 71.7764C252.673 71.7764 253.135 72.0024 253.488 72.4544C253.842 72.9065 254.019 73.5501 254.019 74.3854V74.8424H250.585C250.604 75.5302 250.737 76.0658 250.983 76.449C251.238 76.8323 251.641 77.0337 252.191 77.0534C252.801 77.0534 253.361 76.8912 253.872 76.567ZM253.135 74.1348C253.135 73.5747 253.032 73.1669 252.825 72.9114C252.619 72.6461 252.329 72.5134 251.955 72.5134C251.592 72.5134 251.287 72.651 251.042 72.9261C250.796 73.1914 250.649 73.5944 250.599 74.1348H253.135Z" fill="black"/>
<path d="M254.902 76.9355H255.639V72.6608H254.902V71.9238H256.465L256.509 72.6903H256.524C257.045 72.081 257.639 71.7764 258.307 71.7764C259.015 71.7764 259.442 72.0859 259.59 72.705H259.619C260.15 72.0859 260.759 71.7764 261.447 71.7764C261.938 71.7764 262.297 71.9189 262.523 72.2038C262.749 72.479 262.862 72.8721 262.862 73.3831V76.9355H263.599V77.6725H261.388V76.9355H261.978V73.501C261.978 73.1079 261.909 72.8475 261.771 72.7198C261.634 72.5822 261.442 72.5134 261.196 72.5134C260.666 72.5134 260.165 72.7885 259.693 73.3389V76.9355H260.282V77.6725H258.219V76.9355H258.808V73.501C258.808 73.1079 258.74 72.8475 258.602 72.7198C258.474 72.5822 258.293 72.5134 258.057 72.5134C257.497 72.5134 256.986 72.818 256.524 73.4273V76.9355H257.113V77.6725H254.902V76.9355Z" fill="black"/>
<path d="M264.257 74.8276C264.257 73.8941 264.483 73.1521 264.935 72.6018C265.397 72.0515 265.977 71.7764 266.675 71.7764C267.372 71.7764 267.927 72.0319 268.34 72.5429C268.763 73.0539 268.974 73.7712 268.974 74.695C268.974 75.6383 268.753 76.395 268.311 76.965C267.868 77.5349 267.289 77.8199 266.571 77.8199C265.864 77.8199 265.299 77.5496 264.876 77.0092C264.463 76.4589 264.257 75.7317 264.257 74.8276ZM265.186 74.695C265.186 75.4713 265.309 76.0658 265.554 76.4785C265.81 76.8814 266.173 77.0829 266.645 77.0829C267.087 77.0829 267.431 76.8962 267.677 76.5227C267.923 76.1395 268.045 75.5597 268.045 74.7834C268.045 73.2701 267.564 72.5134 266.601 72.5134C266.139 72.5134 265.785 72.6903 265.54 73.044C265.304 73.388 265.186 73.9383 265.186 74.695Z" fill="black"/>
<path d="M274.206 77.4514C273.735 77.697 273.219 77.8199 272.659 77.8199C271.863 77.8199 271.234 77.5644 270.772 77.0534C270.31 76.5424 270.079 75.8103 270.079 74.8571C270.079 73.8941 270.32 73.1423 270.801 72.6018C271.293 72.0515 271.927 71.7764 272.703 71.7764C273.243 71.7764 273.745 71.8894 274.206 72.1154V73.5452H273.425V72.6461C273.209 72.5576 272.944 72.5134 272.629 72.5134C272.079 72.5134 271.671 72.6903 271.406 73.044C271.14 73.388 271.008 73.9383 271.008 74.695C271.008 75.5008 271.15 76.0953 271.435 76.4785C271.72 76.8618 272.133 77.0534 272.673 77.0534C273.204 77.0534 273.715 76.9207 274.206 76.6554V77.4514Z" fill="black"/>
<path d="M275.237 76.9355H275.974V72.6608H275.237V71.9238H276.814L276.858 72.7492H276.888C277.075 72.4348 277.281 72.2039 277.507 72.0564C277.733 71.909 278.003 71.8353 278.318 71.8353C278.436 71.8353 278.539 71.8452 278.627 71.8648V72.7935C278.48 72.764 278.327 72.7492 278.17 72.7492C277.885 72.7492 277.635 72.818 277.418 72.9556C277.212 73.0834 277.025 73.2946 276.858 73.5894V76.9355H277.743V77.6725H275.237V76.9355Z" fill="black"/>
<path d="M279.655 72.3512C280.333 71.968 281.026 71.7764 281.733 71.7764C282.343 71.7764 282.81 71.9189 283.134 72.2038C283.468 72.479 283.635 72.9212 283.635 73.5305V76.9355H284.372V77.6725H282.839L282.795 77.0092L282.765 76.9944C282.294 77.5447 281.714 77.8199 281.026 77.8199C280.515 77.8199 280.107 77.6725 279.802 77.3777C279.508 77.073 279.36 76.6898 279.36 76.2279C279.36 75.6089 279.626 75.147 280.156 74.8424C280.697 74.5377 281.478 74.3854 282.5 74.3854H282.751V73.5157C282.751 73.1521 282.662 72.8966 282.485 72.7492C282.318 72.592 282.033 72.5134 281.63 72.5134C281.149 72.5134 280.746 72.592 280.422 72.7492V73.5452H279.655V72.3512ZM282.397 75.0192C281.719 75.0192 281.198 75.1077 280.834 75.2846C280.471 75.4516 280.289 75.7513 280.289 76.1837C280.289 76.4982 280.377 76.7291 280.554 76.8765C280.731 77.0141 280.957 77.0829 281.232 77.0829C281.822 77.0829 282.328 76.8421 282.751 76.3606V75.0192H282.397Z" fill="black"/>
<path d="M286.922 77.8199C286.499 77.8199 286.165 77.7118 285.919 77.4956C285.674 77.2696 285.551 76.9404 285.551 76.508V72.6608H284.814V71.9238H285.551V70.5972L286.435 70.435V71.9238H287.762V72.6608H286.435V76.3606C286.435 76.6456 286.489 76.8372 286.597 76.9355C286.715 77.0337 286.868 77.0829 287.054 77.0829C287.29 77.0829 287.526 77.0239 287.762 76.906V77.6283C287.496 77.756 287.216 77.8199 286.922 77.8199Z" fill="black"/>
<path d="M288.494 76.9355H289.231V72.6608H288.494V71.9238H290.116V76.9355H290.853V77.6725H288.494V76.9355ZM288.98 70.3613C288.98 70.155 289.035 69.9977 289.143 69.8896C289.261 69.7717 289.418 69.7127 289.614 69.7127C289.801 69.7127 289.953 69.7717 290.071 69.8896C290.189 69.9977 290.248 70.1451 290.248 70.3318C290.248 70.5284 290.189 70.6856 290.071 70.8035C289.953 70.9116 289.796 70.9657 289.6 70.9657C289.413 70.9657 289.261 70.9116 289.143 70.8035C289.035 70.6856 288.98 70.5382 288.98 70.3613Z" fill="black"/>
<path d="M291.584 77.0387L294.768 72.6313H292.35V73.5452H291.584V71.9238H295.859V72.5576L292.689 76.965H295.239V76.0511H296.006V77.6725H291.584V77.0387Z" fill="black"/>
<path d="M297.331 72.3512C298.009 71.968 298.702 71.7764 299.41 71.7764C300.019 71.7764 300.486 71.9189 300.81 72.2038C301.144 72.479 301.311 72.9212 301.311 73.5305V76.9355H302.048V77.6725H300.515L300.471 77.0092L300.441 76.9944C299.97 77.5447 299.39 77.8199 298.702 77.8199C298.191 77.8199 297.783 77.6725 297.479 77.3777C297.184 77.073 297.036 76.6898 297.036 76.2279C297.036 75.6089 297.302 75.147 297.832 74.8424C298.373 74.5377 299.154 74.3854 300.176 74.3854H300.427V73.5157C300.427 73.1521 300.338 72.8966 300.161 72.7492C299.994 72.592 299.709 72.5134 299.307 72.5134C298.825 72.5134 298.422 72.592 298.098 72.7492V73.5452H297.331V72.3512ZM300.073 75.0192C299.395 75.0192 298.874 75.1077 298.511 75.2846C298.147 75.4516 297.965 75.7513 297.965 76.1837C297.965 76.4982 298.054 76.7291 298.23 76.8765C298.407 77.0141 298.633 77.0829 298.909 77.0829C299.498 77.0829 300.004 76.8421 300.427 76.3606V75.0192H300.073Z" fill="black"/>
<path d="M306.912 77.4514C306.44 77.697 305.924 77.8199 305.364 77.8199C304.568 77.8199 303.939 77.5644 303.478 77.0534C303.016 76.5424 302.785 75.8103 302.785 74.8571C302.785 73.8941 303.026 73.1423 303.507 72.6018C303.998 72.0515 304.632 71.7764 305.409 71.7764C305.949 71.7764 306.45 71.8894 306.912 72.1154V73.5452H306.131V72.6461C305.915 72.5576 305.649 72.5134 305.335 72.5134C304.785 72.5134 304.377 72.6903 304.111 73.044C303.846 73.388 303.713 73.9383 303.713 74.695C303.713 75.5008 303.856 76.0953 304.141 76.4785C304.426 76.8618 304.839 77.0534 305.379 77.0534C305.91 77.0534 306.421 76.9207 306.912 76.6554V77.4514ZM304.185 79.6624C304.372 79.7017 304.563 79.7214 304.76 79.7214C304.947 79.7214 305.094 79.6821 305.202 79.6035C305.31 79.5347 305.364 79.4118 305.364 79.235C305.364 78.9205 305.084 78.7633 304.524 78.7633L304.966 77.5546H305.644L305.364 78.3211C305.659 78.3898 305.865 78.5078 305.983 78.6748C306.111 78.8517 306.175 79.0482 306.175 79.2644C306.175 79.6084 306.047 79.8835 305.792 80.0899C305.536 80.2963 305.202 80.3994 304.789 80.3994C304.593 80.3994 304.391 80.3749 304.185 80.3257V79.6624Z" fill="black"/>
<path d="M308.385 72.3512C309.063 71.968 309.756 71.7764 310.463 71.7764C311.072 71.7764 311.539 71.9189 311.863 72.2038C312.198 72.479 312.365 72.9212 312.365 73.5305V76.9355H313.102V77.6725H311.569L311.524 77.0092L311.495 76.9944C311.023 77.5447 310.443 77.8199 309.756 77.8199C309.245 77.8199 308.837 77.6725 308.532 77.3777C308.237 77.073 308.09 76.6898 308.09 76.2279C308.09 75.6089 308.355 75.147 308.886 74.8424C309.426 74.5377 310.208 74.3854 311.23 74.3854H311.48V73.5157C311.48 73.1521 311.392 72.8966 311.215 72.7492C311.048 72.592 310.763 72.5134 310.36 72.5134C309.878 72.5134 309.476 72.592 309.151 72.7492V73.5452H308.385V72.3512ZM311.126 75.0192C310.448 75.0192 309.928 75.1077 309.564 75.2846C309.2 75.4516 309.019 75.7513 309.019 76.1837C309.019 76.4982 309.107 76.7291 309.284 76.8765C309.461 77.0141 309.687 77.0829 309.962 77.0829C310.552 77.0829 311.058 76.8421 311.48 76.3606V75.0192H311.126ZM308.68 70.8477V70.096C308.984 69.8798 309.299 69.7717 309.623 69.7717C309.878 69.7717 310.178 69.8601 310.522 70.037C310.768 70.155 310.979 70.2139 311.156 70.2139C311.47 70.2139 311.765 70.096 312.04 69.8601H312.07V70.6119C311.765 70.8281 311.451 70.9362 311.126 70.9362C310.871 70.9362 310.571 70.8477 310.227 70.6709C309.982 70.5529 309.77 70.494 309.593 70.494C309.279 70.494 308.984 70.6119 308.709 70.8477H308.68Z" fill="black"/>
<path d="M313.765 74.8276C313.765 73.8941 313.991 73.1521 314.443 72.6018C314.904 72.0515 315.484 71.7764 316.182 71.7764C316.88 71.7764 317.435 72.0319 317.848 72.5429C318.27 73.0539 318.481 73.7712 318.481 74.695C318.481 75.6383 318.26 76.395 317.818 76.965C317.376 77.5349 316.796 77.8199 316.079 77.8199C315.371 77.8199 314.806 77.5496 314.384 77.0092C313.971 76.4589 313.765 75.7317 313.765 74.8276ZM314.693 74.695C314.693 75.4713 314.816 76.0658 315.062 76.4785C315.317 76.8814 315.681 77.0829 316.152 77.0829C316.595 77.0829 316.939 76.8962 317.184 76.5227C317.43 76.1395 317.553 75.5597 317.553 74.7834C317.553 73.2701 317.071 72.5134 316.108 72.5134C315.646 72.5134 315.293 72.6903 315.047 73.044C314.811 73.388 314.693 73.9383 314.693 74.695Z" fill="black"/>
</svg>
