<svg width="511" height="388" viewBox="0 0 511 388" fill="none" xmlns="http://www.w3.org/2000/svg">
<mask id="path-1-outside-1_2_66" maskUnits="userSpaceOnUse" x="0" y="0" width="511" height="388" fill="black">
<rect fill="white" width="511" height="388"/>
<path d="M477.6 338.304C479.078 337.564 469.469 348.467 457.273 351.793C452.284 353.087 440.457 355.489 432.142 351.054C429.37 349.945 426.783 347.913 424.75 344.771C404.978 315.944 427.892 282.313 420.87 273.812C419.946 273.258 418.837 272.704 417.359 272.519C408.304 271.964 400.173 279.541 395.369 285.824C395.369 302.639 395.369 321.303 395.369 334.423C395.369 336.271 395.369 338.304 395.369 339.967C395.369 344.032 400.173 351.239 402.76 351.608C402.76 351.978 402.76 353.641 402.76 353.641H353.052C353.052 353.641 353.052 351.978 353.052 351.608C355.27 351.239 359.705 344.586 360.259 340.706C360.259 320.194 360.259 280.834 360.259 260.877C358.042 245.724 349.911 244.985 349.911 244.985V242.953C376.52 242.953 389.456 228.909 393.336 224.658C394.445 224.658 395.369 224.658 395.369 224.658V249.975C395.369 254.225 395.369 261.062 395.369 269.377C395.369 272.519 395.369 275.845 395.369 279.171C402.206 271.04 414.587 261.616 427.337 260.323C427.337 260.323 464.295 258.29 456.534 290.813C449.327 320.933 452.838 334.977 465.589 339.597C468.73 340.151 472.611 339.967 477.6 338.304Z"/>
<path d="M337.925 320.404C339.034 315.6 344.023 317.263 343.469 321.144C341.251 341.286 322.033 356.253 300.598 356.253C273.249 356.253 250.889 335.188 250.889 309.132C250.889 283.262 273.249 262.196 300.598 262.196C324.805 262.196 349.567 282.892 336.262 302.295C326.653 315.97 293.76 322.622 300.228 299.523C306.88 275.316 299.858 267.74 289.51 270.696C278.608 273.838 274.727 293.61 281.564 314.676C292.282 347.384 332.196 342.394 337.925 320.404Z"/>
<path d="M205.251 356.253C191.987 356.253 181.972 353.637 175.115 348.404C168.167 343.26 164.287 338.208 163.295 333.335C162.302 328.463 161.761 324.854 161.761 322.598C161.761 317.816 162.844 313.214 165.009 308.883C169.972 299.048 178.363 294.086 190.093 294.086C195.777 294.086 202.183 295.529 209.311 298.327C209.763 298.507 210.123 298.597 210.394 298.597C211.026 298.597 211.387 298.326 211.387 297.875C211.387 297.514 210.936 296.973 210.033 296.341C207.236 294.627 203.356 293.274 198.394 292.281C193.341 291.289 188.288 290.567 183.325 290.296C175.656 289.665 170.152 287.319 166.814 283.258C163.475 279.198 161.761 275.047 161.761 270.807C161.761 263.318 165.821 256.911 173.942 251.588C180.709 247.167 190.634 244.821 203.898 244.37H204.8C209.582 244.37 213.733 244.821 217.432 245.723C221.131 246.625 224.38 247.618 227.357 248.701C232.139 250.415 235.658 251.317 237.824 251.317C239.087 251.317 240.35 251.137 241.523 250.776C237.643 260.521 233.493 267.017 229.162 270.175C224.741 273.333 220.59 274.957 216.62 274.957C215.537 274.957 214.454 274.867 213.372 274.687C208.319 273.784 203.447 271.529 198.845 267.829C194.243 264.13 190.183 259.979 186.664 255.197C185.671 253.934 184.95 253.302 184.408 253.302C184.138 253.302 183.957 253.393 183.867 253.573C183.596 253.934 183.416 254.475 183.416 255.287C183.416 255.829 183.506 256.46 183.596 257.182C185.671 265.844 189.01 272.341 193.431 276.672C197.852 281.003 202.364 284.431 207.146 287.048C209.582 288.492 211.928 289.935 214.003 291.469C216.079 293.003 217.883 294.808 219.417 296.883C220.139 297.966 220.5 298.958 220.5 299.86C220.5 300.492 220.319 301.124 219.868 301.755C219.056 302.928 217.973 303.56 216.439 303.56H215.808C214.184 303.379 212.65 303.289 211.206 303.289C204.8 303.289 199.747 305.094 195.867 308.613C191.085 313.034 188.469 317.184 187.837 321.245C187.205 325.305 186.844 328.192 186.844 329.907C186.844 334.328 187.837 338.388 189.822 342.087C192.529 347.231 197.13 349.937 203.537 350.298C208.77 350.208 212.74 347.952 215.537 343.621C218.244 339.381 219.958 334.779 220.77 329.907C221.583 325.034 221.943 320.974 221.943 317.635L221.853 314.117C221.853 313.214 222.214 312.763 222.846 312.763C223.207 312.763 223.928 313.034 224.921 313.575C229.884 316.372 234.395 318.899 238.365 321.335C240.982 322.869 242.696 324.042 243.689 324.764C241.974 331.621 238.997 337.396 234.666 342.087C230.244 346.87 225.462 350.389 220.139 352.735C214.815 355.08 209.853 356.253 205.251 356.253Z"/>
<path d="M98.8175 255.197C96.9696 257.168 94.9985 259.201 92.9043 261.295C90.81 263.266 88.3461 265.114 85.5127 266.839C82.8025 268.44 79.6611 269.795 76.0885 270.904C72.5159 272.013 68.4505 272.567 63.8924 272.567L63.7076 241.734H88.5584C112.161 239.046 125.456 239.046 149.265 241.734H161.646L161.761 262.1C160.058 264.1 160.049 266.333 159.558 269.306C156.791 269.188 154.223 268.833 151.852 268.241C148.895 267.378 146.185 266.269 143.721 264.914C141.257 263.436 138.978 261.835 136.884 260.11C134.913 258.385 133.065 256.599 131.34 254.751C129.369 259.555 127.029 263.744 124.318 267.317C121.731 270.889 119.206 274.277 116.742 277.48C114.401 280.56 112.369 283.64 110.644 286.719C108.919 289.799 108.057 293.187 108.057 296.883C108.057 301.811 109.861 302.595 112.334 303.6C115.29 307.665 118.467 310.044 121.916 314.725C125.489 319.407 128.692 324.765 131.525 330.802C134.359 336.715 135.775 343.983 135.775 352.607H98.8175V255.197Z"/>
<path d="M430.058 252.94C427.622 252.94 425.276 252.669 423.02 252.038C420.765 251.496 418.96 250.684 417.426 249.511C415.17 247.707 413.366 245.361 412.012 242.474C410.659 239.586 409.937 236.428 409.937 232.909C409.937 230.202 410.388 227.405 411.381 224.518C414.178 217.3 419.411 211.706 427.261 207.735C435.111 203.765 442.871 201.78 450.721 201.78C451.803 201.78 453.879 201.961 456.856 202.231C457.849 202.231 458.3 201.78 458.3 200.968C458.3 197.991 457.488 194.743 455.864 191.224C454.42 188.156 452.525 185.449 450.089 183.193C447.653 180.938 444.765 179.855 441.607 179.855C439.261 179.855 436.735 181.569 434.028 184.908C431.502 188.066 429.156 191.404 426.9 194.923C425.276 197.449 423.832 199.615 422.569 201.329C421.216 203.044 420.133 203.946 419.321 203.946C418.689 203.946 418.148 203.224 417.787 201.78C417.697 201.6 417.697 201.419 417.697 201.149C416.885 197.63 416.073 193.389 415.17 188.426C414.719 186.171 414.539 184.727 414.539 184.096C417.697 181.298 421.847 179.043 427.081 177.419C432.224 175.794 437.728 174.982 443.412 174.982C453.067 174.982 461.097 177.148 467.503 181.569C474.812 186.622 478.511 194.111 478.511 203.946L478.421 206.021C477.97 214.412 477.699 221.721 477.699 228.127C477.699 237.601 478.331 245.541 479.504 251.857H446.299C447.111 250.684 447.653 249.241 447.923 247.707C447.923 247.346 447.833 247.165 447.653 247.165C447.563 247.165 447.382 247.256 447.292 247.346C447.111 247.526 446.931 247.707 446.841 247.797C446.66 247.887 446.57 247.978 446.48 248.068C444.765 249.602 442.329 250.865 439.352 251.677C436.374 252.489 433.216 252.94 430.058 252.94ZM442.871 243.376C444.405 243.376 445.848 242.925 447.292 241.932C448.736 241.03 449.818 239.947 450.54 238.594C452.345 235.075 453.969 230.563 455.322 225.059C456.676 219.555 457.307 215.134 457.307 211.976C457.307 210.803 457.127 209.63 456.676 208.638C456.225 207.645 455.052 207.194 453.157 207.104C449.999 207.104 447.021 208.367 444.314 210.893C441.607 213.51 439.442 216.668 437.818 220.368C436.194 224.157 435.382 227.857 435.382 231.556C435.382 235.255 436.374 238.504 438.359 241.21C439.713 242.654 441.247 243.376 442.871 243.376Z"/>
<path d="M337.685 236.855C335.96 236.855 334.235 236.731 332.511 236.485C330.786 236.362 329.061 236.177 327.337 235.931L337.13 186.223C338.362 179.447 339.656 172.302 341.011 164.787C342.489 157.149 343.906 149.634 345.261 142.243C346.616 134.728 347.786 127.768 348.772 121.362C349.881 114.956 350.743 109.535 351.359 105.1C356.656 104.115 362.015 103.191 367.436 102.328C372.856 101.466 378.4 101.035 384.067 101.035C393.183 101.035 400.39 102.944 405.687 106.763C410.984 110.459 414.803 115.387 417.144 121.546C419.485 127.583 420.655 134.235 420.655 141.504C420.655 148.033 419.731 154.932 417.883 162.2C416.035 169.345 413.386 176.49 409.937 183.635C406.611 190.657 402.607 197.31 397.926 203.593C390.657 213.325 381.788 221.332 371.316 227.615C360.968 233.775 349.758 236.855 337.685 236.855ZM359.675 213.571C363.986 210.738 368.052 206.426 371.871 200.636C375.813 194.846 379.509 187.886 382.958 179.755C386.038 172.24 388.44 165.157 390.165 158.504C391.889 151.729 392.752 146.123 392.752 141.688C392.752 137.13 391.458 133.558 388.871 130.971C386.407 128.384 382.465 127.09 377.045 127.09C375.074 137.685 373.041 147.478 370.947 156.472C368.976 165.465 367.005 174.519 365.033 183.635C363.186 192.752 361.399 202.73 359.675 213.571Z"/>
<path d="M234.666 109.206H284.928C308.828 109.575 320.777 121.894 320.777 146.163V149.859H247.601C246.615 150.968 245.753 152.077 245.014 153.185C244.398 154.171 244.09 155.341 244.09 156.696C244.09 158.667 244.767 160.515 246.123 162.24C247.478 163.841 249.141 165.505 251.112 167.229C253.206 168.831 255.424 170.617 257.764 172.588C260.228 174.436 262.446 176.592 264.417 179.056C266.511 181.396 268.174 184.168 269.406 187.371C270.761 190.451 271.439 194.024 271.439 198.089C275.874 198.089 279.015 196.734 280.863 194.024C282.834 191.313 284.066 188.172 284.559 184.599C285.051 180.904 285.051 177.208 284.559 173.512C284.189 169.693 284.004 166.675 284.004 164.457H320.962C321.332 170.74 320.531 176.222 318.56 180.904C316.589 185.585 313.755 189.465 310.06 192.545C306.487 195.625 302.237 197.966 297.309 199.567C292.381 201.046 287.146 201.723 281.602 201.6H234.85L234.666 109.206ZM283.819 146.163C283.819 143.946 284.004 140.989 284.374 137.293C284.867 133.474 284.867 129.779 284.374 126.206C284.004 122.51 282.896 119.369 281.048 116.782C279.2 114.072 276.058 112.717 271.623 112.717C271.623 117.398 270.946 121.463 269.591 124.913C268.359 128.362 266.696 131.38 264.601 133.967C262.63 136.554 260.475 138.833 258.134 140.804C255.916 142.652 253.761 144.439 251.666 146.163H283.819Z"/>
<path d="M89.0237 239.072V237.963C101.959 222.256 101.774 142.243 101.774 119.329V106.763C101.774 96.9696 101.774 86.991 101.405 77.1972C100.665 60.1966 100.111 34.6958 77.382 34.6958C67.2186 34.6958 59.6423 40.7938 59.6423 51.5115C59.6423 60.0118 66.1099 67.2186 74.7949 67.2186C77.0124 67.2186 79.4146 66.6642 81.4473 65.5555L82.0017 67.2186C76.0884 75.3493 65.5555 78.6755 55.9465 78.6755C42.0873 78.6755 31 71.284 31 56.5008C31 36.3589 56.1313 31 72.0231 31C90.3172 31 108.426 34.1414 126.721 34.1414C143.352 34.1414 159.983 31.7392 176.614 31.7392C207.288 31.7392 224.843 53.729 224.843 83.2952C224.843 106.579 212.463 134.112 187.516 139.286C198.973 166.82 231.311 246.279 266.051 246.279C275.845 246.279 283.421 239.072 283.421 229.278C283.421 218.93 274.921 214.31 265.497 215.05V214.126C270.856 210.43 277.508 208.397 283.976 208.397C295.987 208.397 309.846 213.941 309.846 227.985C309.846 243.507 293.954 251.638 280.28 251.638C267.53 251.638 255.334 247.757 242.953 244.801C229.094 241.474 214.865 239.257 200.636 239.257C195.092 239.257 189.734 239.626 184.19 240.181C183.82 222.072 156.656 141.504 136.514 141.504C136.699 160.722 137.069 224.659 149.265 237.963V239.072C139.101 237.963 128.938 237.224 118.775 237.224C108.796 237.224 98.8175 237.963 89.0237 239.072ZM136.514 136.145V136.699C138.177 136.884 139.656 136.884 141.319 136.884C171.255 136.884 186.407 113.231 186.407 85.3279C186.407 66.849 177.537 37.2828 154.624 37.2828C141.319 37.2828 137.254 45.5983 137.254 57.6096C137.254 83.8496 136.514 109.905 136.514 136.145Z"/>
</mask>
<path d="M477.6 338.304C479.078 337.564 469.469 348.467 457.273 351.793C452.284 353.087 440.457 355.489 432.142 351.054C429.37 349.945 426.783 347.913 424.75 344.771C404.978 315.944 427.892 282.313 420.87 273.812C419.946 273.258 418.837 272.704 417.359 272.519C408.304 271.964 400.173 279.541 395.369 285.824C395.369 302.639 395.369 321.303 395.369 334.423C395.369 336.271 395.369 338.304 395.369 339.967C395.369 344.032 400.173 351.239 402.76 351.608C402.76 351.978 402.76 353.641 402.76 353.641H353.052C353.052 353.641 353.052 351.978 353.052 351.608C355.27 351.239 359.705 344.586 360.259 340.706C360.259 320.194 360.259 280.834 360.259 260.877C358.042 245.724 349.911 244.985 349.911 244.985V242.953C376.52 242.953 389.456 228.909 393.336 224.658C394.445 224.658 395.369 224.658 395.369 224.658V249.975C395.369 254.225 395.369 261.062 395.369 269.377C395.369 272.519 395.369 275.845 395.369 279.171C402.206 271.04 414.587 261.616 427.337 260.323C427.337 260.323 464.295 258.29 456.534 290.813C449.327 320.933 452.838 334.977 465.589 339.597C468.73 340.151 472.611 339.967 477.6 338.304Z" fill="#E61425"/>
<path d="M337.925 320.404C339.034 315.6 344.023 317.263 343.469 321.144C341.251 341.286 322.033 356.253 300.598 356.253C273.249 356.253 250.889 335.188 250.889 309.132C250.889 283.262 273.249 262.196 300.598 262.196C324.805 262.196 349.567 282.892 336.262 302.295C326.653 315.97 293.76 322.622 300.228 299.523C306.88 275.316 299.858 267.74 289.51 270.696C278.608 273.838 274.727 293.61 281.564 314.676C292.282 347.384 332.196 342.394 337.925 320.404Z" fill="#F2B505"/>
<path d="M205.251 356.253C191.987 356.253 181.972 353.637 175.115 348.404C168.167 343.26 164.287 338.208 163.295 333.335C162.302 328.463 161.761 324.854 161.761 322.598C161.761 317.816 162.844 313.214 165.009 308.883C169.972 299.048 178.363 294.086 190.093 294.086C195.777 294.086 202.183 295.529 209.311 298.327C209.763 298.507 210.123 298.597 210.394 298.597C211.026 298.597 211.387 298.326 211.387 297.875C211.387 297.514 210.936 296.973 210.033 296.341C207.236 294.627 203.356 293.274 198.394 292.281C193.341 291.289 188.288 290.567 183.325 290.296C175.656 289.665 170.152 287.319 166.814 283.258C163.475 279.198 161.761 275.047 161.761 270.807C161.761 263.318 165.821 256.911 173.942 251.588C180.709 247.167 190.634 244.821 203.898 244.37H204.8C209.582 244.37 213.733 244.821 217.432 245.723C221.131 246.625 224.38 247.618 227.357 248.701C232.139 250.415 235.658 251.317 237.824 251.317C239.087 251.317 240.35 251.137 241.523 250.776C237.643 260.521 233.493 267.017 229.162 270.175C224.741 273.333 220.59 274.957 216.62 274.957C215.537 274.957 214.454 274.867 213.372 274.687C208.319 273.784 203.447 271.529 198.845 267.829C194.243 264.13 190.183 259.979 186.664 255.197C185.671 253.934 184.95 253.302 184.408 253.302C184.138 253.302 183.957 253.393 183.867 253.573C183.596 253.934 183.416 254.475 183.416 255.287C183.416 255.829 183.506 256.46 183.596 257.182C185.671 265.844 189.01 272.341 193.431 276.672C197.852 281.003 202.364 284.431 207.146 287.048C209.582 288.492 211.928 289.935 214.003 291.469C216.079 293.003 217.883 294.808 219.417 296.883C220.139 297.966 220.5 298.958 220.5 299.86C220.5 300.492 220.319 301.124 219.868 301.755C219.056 302.928 217.973 303.56 216.439 303.56H215.808C214.184 303.379 212.65 303.289 211.206 303.289C204.8 303.289 199.747 305.094 195.867 308.613C191.085 313.034 188.469 317.184 187.837 321.245C187.205 325.305 186.844 328.192 186.844 329.907C186.844 334.328 187.837 338.388 189.822 342.087C192.529 347.231 197.13 349.937 203.537 350.298C208.77 350.208 212.74 347.952 215.537 343.621C218.244 339.381 219.958 334.779 220.77 329.907C221.583 325.034 221.943 320.974 221.943 317.635L221.853 314.117C221.853 313.214 222.214 312.763 222.846 312.763C223.207 312.763 223.928 313.034 224.921 313.575C229.884 316.372 234.395 318.899 238.365 321.335C240.982 322.869 242.696 324.042 243.689 324.764C241.974 331.621 238.997 337.396 234.666 342.087C230.244 346.87 225.462 350.389 220.139 352.735C214.815 355.08 209.853 356.253 205.251 356.253Z" fill="#F55FC0"/>
<path d="M98.8175 255.197C96.9696 257.168 94.9985 259.201 92.9043 261.295C90.81 263.266 88.3461 265.114 85.5127 266.839C82.8025 268.44 79.6611 269.795 76.0885 270.904C72.5159 272.013 68.4505 272.567 63.8924 272.567L63.7076 241.734H88.5584C112.161 239.046 125.456 239.046 149.265 241.734H161.646L161.761 262.1C160.058 264.1 160.049 266.333 159.558 269.306C156.791 269.188 154.223 268.833 151.852 268.241C148.895 267.378 146.185 266.269 143.721 264.914C141.257 263.436 138.978 261.835 136.884 260.11C134.913 258.385 133.065 256.599 131.34 254.751C129.369 259.555 127.029 263.744 124.318 267.317C121.731 270.889 119.206 274.277 116.742 277.48C114.401 280.56 112.369 283.64 110.644 286.719C108.919 289.799 108.057 293.187 108.057 296.883C108.057 301.811 109.861 302.595 112.334 303.6C115.29 307.665 118.467 310.044 121.916 314.725C125.489 319.407 128.692 324.765 131.525 330.802C134.359 336.715 135.775 343.983 135.775 352.607H98.8175V255.197Z" fill="#0265DE"/>
<path d="M430.058 252.94C427.622 252.94 425.276 252.669 423.02 252.038C420.765 251.496 418.96 250.684 417.426 249.511C415.17 247.707 413.366 245.361 412.012 242.474C410.659 239.586 409.937 236.428 409.937 232.909C409.937 230.202 410.388 227.405 411.381 224.518C414.178 217.3 419.411 211.706 427.261 207.735C435.111 203.765 442.871 201.78 450.721 201.78C451.803 201.78 453.879 201.961 456.856 202.231C457.849 202.231 458.3 201.78 458.3 200.968C458.3 197.991 457.488 194.743 455.864 191.224C454.42 188.156 452.525 185.449 450.089 183.193C447.653 180.938 444.765 179.855 441.607 179.855C439.261 179.855 436.735 181.569 434.028 184.908C431.502 188.066 429.156 191.404 426.9 194.923C425.276 197.449 423.832 199.615 422.569 201.329C421.216 203.044 420.133 203.946 419.321 203.946C418.689 203.946 418.148 203.224 417.787 201.78C417.697 201.6 417.697 201.419 417.697 201.149C416.885 197.63 416.073 193.389 415.17 188.426C414.719 186.171 414.539 184.727 414.539 184.096C417.697 181.298 421.847 179.043 427.081 177.419C432.224 175.794 437.728 174.982 443.412 174.982C453.067 174.982 461.097 177.148 467.503 181.569C474.812 186.622 478.511 194.111 478.511 203.946L478.421 206.021C477.97 214.412 477.699 221.721 477.699 228.127C477.699 237.601 478.331 245.541 479.504 251.857H446.299C447.111 250.684 447.653 249.241 447.923 247.707C447.923 247.346 447.833 247.165 447.653 247.165C447.563 247.165 447.382 247.256 447.292 247.346C447.111 247.526 446.931 247.707 446.841 247.797C446.66 247.887 446.57 247.978 446.48 248.068C444.765 249.602 442.329 250.865 439.352 251.677C436.374 252.489 433.216 252.94 430.058 252.94ZM442.871 243.376C444.405 243.376 445.848 242.925 447.292 241.932C448.736 241.03 449.818 239.947 450.54 238.594C452.345 235.075 453.969 230.563 455.322 225.059C456.676 219.555 457.307 215.134 457.307 211.976C457.307 210.803 457.127 209.63 456.676 208.638C456.225 207.645 455.052 207.194 453.157 207.104C449.999 207.104 447.021 208.367 444.314 210.893C441.607 213.51 439.442 216.668 437.818 220.368C436.194 224.157 435.382 227.857 435.382 231.556C435.382 235.255 436.374 238.504 438.359 241.21C439.713 242.654 441.247 243.376 442.871 243.376Z" fill="#0265DE"/>
<path d="M337.685 236.855C335.96 236.855 334.235 236.731 332.511 236.485C330.786 236.362 329.061 236.177 327.337 235.931L337.13 186.223C338.362 179.447 339.656 172.302 341.011 164.787C342.489 157.149 343.906 149.634 345.261 142.243C346.616 134.728 347.786 127.768 348.772 121.362C349.881 114.956 350.743 109.535 351.359 105.1C356.656 104.115 362.015 103.191 367.436 102.328C372.856 101.466 378.4 101.035 384.067 101.035C393.183 101.035 400.39 102.944 405.687 106.763C410.984 110.459 414.803 115.387 417.144 121.546C419.485 127.583 420.655 134.235 420.655 141.504C420.655 148.033 419.731 154.932 417.883 162.2C416.035 169.345 413.386 176.49 409.937 183.635C406.611 190.657 402.607 197.31 397.926 203.593C390.657 213.325 381.788 221.332 371.316 227.615C360.968 233.775 349.758 236.855 337.685 236.855ZM359.675 213.571C363.986 210.738 368.052 206.426 371.871 200.636C375.813 194.846 379.509 187.886 382.958 179.755C386.038 172.24 388.44 165.157 390.165 158.504C391.889 151.729 392.752 146.123 392.752 141.688C392.752 137.13 391.458 133.558 388.871 130.971C386.407 128.384 382.465 127.09 377.045 127.09C375.074 137.685 373.041 147.478 370.947 156.472C368.976 165.465 367.005 174.519 365.033 183.635C363.186 192.752 361.399 202.73 359.675 213.571Z" fill="#0DA144"/>
<path d="M234.666 109.206H284.928C308.828 109.575 320.777 121.894 320.777 146.163V149.859H247.601C246.615 150.968 245.753 152.077 245.014 153.185C244.398 154.171 244.09 155.341 244.09 156.696C244.09 158.667 244.767 160.515 246.123 162.24C247.478 163.841 249.141 165.505 251.112 167.229C253.206 168.831 255.424 170.617 257.764 172.588C260.228 174.436 262.446 176.592 264.417 179.056C266.511 181.396 268.174 184.168 269.406 187.371C270.761 190.451 271.439 194.024 271.439 198.089C275.874 198.089 279.015 196.734 280.863 194.024C282.834 191.313 284.066 188.172 284.559 184.599C285.051 180.904 285.051 177.208 284.559 173.512C284.189 169.693 284.004 166.675 284.004 164.457H320.962C321.332 170.74 320.531 176.222 318.56 180.904C316.589 185.585 313.755 189.465 310.06 192.545C306.487 195.625 302.237 197.966 297.309 199.567C292.381 201.046 287.146 201.723 281.602 201.6H234.85L234.666 109.206ZM283.819 146.163C283.819 143.946 284.004 140.989 284.374 137.293C284.867 133.474 284.867 129.779 284.374 126.206C284.004 122.51 282.896 119.369 281.048 116.782C279.2 114.072 276.058 112.717 271.623 112.717C271.623 117.398 270.946 121.463 269.591 124.913C268.359 128.362 266.696 131.38 264.601 133.967C262.63 136.554 260.475 138.833 258.134 140.804C255.916 142.652 253.761 144.439 251.666 146.163H283.819Z" fill="#F55FC0"/>
<path d="M89.0237 239.072V237.963C101.959 222.256 101.774 142.243 101.774 119.329V106.763C101.774 96.9696 101.774 86.991 101.405 77.1972C100.665 60.1966 100.111 34.6958 77.382 34.6958C67.2186 34.6958 59.6423 40.7938 59.6423 51.5115C59.6423 60.0118 66.1099 67.2186 74.7949 67.2186C77.0124 67.2186 79.4146 66.6642 81.4473 65.5555L82.0017 67.2186C76.0884 75.3493 65.5555 78.6755 55.9465 78.6755C42.0873 78.6755 31 71.284 31 56.5008C31 36.3589 56.1313 31 72.0231 31C90.3172 31 108.426 34.1414 126.721 34.1414C143.352 34.1414 159.983 31.7392 176.614 31.7392C207.288 31.7392 224.843 53.729 224.843 83.2952C224.843 106.579 212.463 134.112 187.516 139.286C198.973 166.82 231.311 246.279 266.051 246.279C275.845 246.279 283.421 239.072 283.421 229.278C283.421 218.93 274.921 214.31 265.497 215.05V214.126C270.856 210.43 277.508 208.397 283.976 208.397C295.987 208.397 309.846 213.941 309.846 227.985C309.846 243.507 293.954 251.638 280.28 251.638C267.53 251.638 255.334 247.757 242.953 244.801C229.094 241.474 214.865 239.257 200.636 239.257C195.092 239.257 189.734 239.626 184.19 240.181C183.82 222.072 156.656 141.504 136.514 141.504C136.699 160.722 137.069 224.659 149.265 237.963V239.072C139.101 237.963 128.938 237.224 118.775 237.224C108.796 237.224 98.8175 237.963 89.0237 239.072ZM136.514 136.145V136.699C138.177 136.884 139.656 136.884 141.319 136.884C171.255 136.884 186.407 113.231 186.407 85.3279C186.407 66.849 177.537 37.2828 154.624 37.2828C141.319 37.2828 137.254 45.5983 137.254 57.6096C137.254 83.8496 136.514 109.905 136.514 136.145Z" fill="#F2B505"/>
<path d="M477.6 338.304C479.078 337.564 469.469 348.467 457.273 351.793C452.284 353.087 440.457 355.489 432.142 351.054C429.37 349.945 426.783 347.913 424.75 344.771C404.978 315.944 427.892 282.313 420.87 273.812C419.946 273.258 418.837 272.704 417.359 272.519C408.304 271.964 400.173 279.541 395.369 285.824C395.369 302.639 395.369 321.303 395.369 334.423C395.369 336.271 395.369 338.304 395.369 339.967C395.369 344.032 400.173 351.239 402.76 351.608C402.76 351.978 402.76 353.641 402.76 353.641H353.052C353.052 353.641 353.052 351.978 353.052 351.608C355.27 351.239 359.705 344.586 360.259 340.706C360.259 320.194 360.259 280.834 360.259 260.877C358.042 245.724 349.911 244.985 349.911 244.985V242.953C376.52 242.953 389.456 228.909 393.336 224.658C394.445 224.658 395.369 224.658 395.369 224.658V249.975C395.369 254.225 395.369 261.062 395.369 269.377C395.369 272.519 395.369 275.845 395.369 279.171C402.206 271.04 414.587 261.616 427.337 260.323C427.337 260.323 464.295 258.29 456.534 290.813C449.327 320.933 452.838 334.977 465.589 339.597C468.73 340.151 472.611 339.967 477.6 338.304Z" stroke="white" stroke-width="62" stroke-linejoin="round" mask="url(#path-1-outside-1_2_66)"/>
<path d="M337.925 320.404C339.034 315.6 344.023 317.263 343.469 321.144C341.251 341.286 322.033 356.253 300.598 356.253C273.249 356.253 250.889 335.188 250.889 309.132C250.889 283.262 273.249 262.196 300.598 262.196C324.805 262.196 349.567 282.892 336.262 302.295C326.653 315.97 293.76 322.622 300.228 299.523C306.88 275.316 299.858 267.74 289.51 270.696C278.608 273.838 274.727 293.61 281.564 314.676C292.282 347.384 332.196 342.394 337.925 320.404Z" stroke="white" stroke-width="62" stroke-linejoin="round" mask="url(#path-1-outside-1_2_66)"/>
<path d="M205.251 356.253C191.987 356.253 181.972 353.637 175.115 348.404C168.167 343.26 164.287 338.208 163.295 333.335C162.302 328.463 161.761 324.854 161.761 322.598C161.761 317.816 162.844 313.214 165.009 308.883C169.972 299.048 178.363 294.086 190.093 294.086C195.777 294.086 202.183 295.529 209.311 298.327C209.763 298.507 210.123 298.597 210.394 298.597C211.026 298.597 211.387 298.326 211.387 297.875C211.387 297.514 210.936 296.973 210.033 296.341C207.236 294.627 203.356 293.274 198.394 292.281C193.341 291.289 188.288 290.567 183.325 290.296C175.656 289.665 170.152 287.319 166.814 283.258C163.475 279.198 161.761 275.047 161.761 270.807C161.761 263.318 165.821 256.911 173.942 251.588C180.709 247.167 190.634 244.821 203.898 244.37H204.8C209.582 244.37 213.733 244.821 217.432 245.723C221.131 246.625 224.38 247.618 227.357 248.701C232.139 250.415 235.658 251.317 237.824 251.317C239.087 251.317 240.35 251.137 241.523 250.776C237.643 260.521 233.493 267.017 229.162 270.175C224.741 273.333 220.59 274.957 216.62 274.957C215.537 274.957 214.454 274.867 213.372 274.687C208.319 273.784 203.447 271.529 198.845 267.829C194.243 264.13 190.183 259.979 186.664 255.197C185.671 253.934 184.95 253.302 184.408 253.302C184.138 253.302 183.957 253.393 183.867 253.573C183.596 253.934 183.416 254.475 183.416 255.287C183.416 255.829 183.506 256.46 183.596 257.182C185.671 265.844 189.01 272.341 193.431 276.672C197.852 281.003 202.364 284.431 207.146 287.048C209.582 288.492 211.928 289.935 214.003 291.469C216.079 293.003 217.883 294.808 219.417 296.883C220.139 297.966 220.5 298.958 220.5 299.86C220.5 300.492 220.319 301.124 219.868 301.755C219.056 302.928 217.973 303.56 216.439 303.56H215.808C214.184 303.379 212.65 303.289 211.206 303.289C204.8 303.289 199.747 305.094 195.867 308.613C191.085 313.034 188.469 317.184 187.837 321.245C187.205 325.305 186.844 328.192 186.844 329.907C186.844 334.328 187.837 338.388 189.822 342.087C192.529 347.231 197.13 349.937 203.537 350.298C208.77 350.208 212.74 347.952 215.537 343.621C218.244 339.381 219.958 334.779 220.77 329.907C221.583 325.034 221.943 320.974 221.943 317.635L221.853 314.117C221.853 313.214 222.214 312.763 222.846 312.763C223.207 312.763 223.928 313.034 224.921 313.575C229.884 316.372 234.395 318.899 238.365 321.335C240.982 322.869 242.696 324.042 243.689 324.764C241.974 331.621 238.997 337.396 234.666 342.087C230.244 346.87 225.462 350.389 220.139 352.735C214.815 355.08 209.853 356.253 205.251 356.253Z" stroke="white" stroke-width="62" stroke-linejoin="round" mask="url(#path-1-outside-1_2_66)"/>
<path d="M98.8175 255.197C96.9696 257.168 94.9985 259.201 92.9043 261.295C90.81 263.266 88.3461 265.114 85.5127 266.839C82.8025 268.44 79.6611 269.795 76.0885 270.904C72.5159 272.013 68.4505 272.567 63.8924 272.567L63.7076 241.734H88.5584C112.161 239.046 125.456 239.046 149.265 241.734H161.646L161.761 262.1C160.058 264.1 160.049 266.333 159.558 269.306C156.791 269.188 154.223 268.833 151.852 268.241C148.895 267.378 146.185 266.269 143.721 264.914C141.257 263.436 138.978 261.835 136.884 260.11C134.913 258.385 133.065 256.599 131.34 254.751C129.369 259.555 127.029 263.744 124.318 267.317C121.731 270.889 119.206 274.277 116.742 277.48C114.401 280.56 112.369 283.64 110.644 286.719C108.919 289.799 108.057 293.187 108.057 296.883C108.057 301.811 109.861 302.595 112.334 303.6C115.29 307.665 118.467 310.044 121.916 314.725C125.489 319.407 128.692 324.765 131.525 330.802C134.359 336.715 135.775 343.983 135.775 352.607H98.8175V255.197Z" stroke="white" stroke-width="62" stroke-linejoin="round" mask="url(#path-1-outside-1_2_66)"/>
<path d="M430.058 252.94C427.622 252.94 425.276 252.669 423.02 252.038C420.765 251.496 418.96 250.684 417.426 249.511C415.17 247.707 413.366 245.361 412.012 242.474C410.659 239.586 409.937 236.428 409.937 232.909C409.937 230.202 410.388 227.405 411.381 224.518C414.178 217.3 419.411 211.706 427.261 207.735C435.111 203.765 442.871 201.78 450.721 201.78C451.803 201.78 453.879 201.961 456.856 202.231C457.849 202.231 458.3 201.78 458.3 200.968C458.3 197.991 457.488 194.743 455.864 191.224C454.42 188.156 452.525 185.449 450.089 183.193C447.653 180.938 444.765 179.855 441.607 179.855C439.261 179.855 436.735 181.569 434.028 184.908C431.502 188.066 429.156 191.404 426.9 194.923C425.276 197.449 423.832 199.615 422.569 201.329C421.216 203.044 420.133 203.946 419.321 203.946C418.689 203.946 418.148 203.224 417.787 201.78C417.697 201.6 417.697 201.419 417.697 201.149C416.885 197.63 416.073 193.389 415.17 188.426C414.719 186.171 414.539 184.727 414.539 184.096C417.697 181.298 421.847 179.043 427.081 177.419C432.224 175.794 437.728 174.982 443.412 174.982C453.067 174.982 461.097 177.148 467.503 181.569C474.812 186.622 478.511 194.111 478.511 203.946L478.421 206.021C477.97 214.412 477.699 221.721 477.699 228.127C477.699 237.601 478.331 245.541 479.504 251.857H446.299C447.111 250.684 447.653 249.241 447.923 247.707C447.923 247.346 447.833 247.165 447.653 247.165C447.563 247.165 447.382 247.256 447.292 247.346C447.111 247.526 446.931 247.707 446.841 247.797C446.66 247.887 446.57 247.978 446.48 248.068C444.765 249.602 442.329 250.865 439.352 251.677C436.374 252.489 433.216 252.94 430.058 252.94ZM442.871 243.376C444.405 243.376 445.848 242.925 447.292 241.932C448.736 241.03 449.818 239.947 450.54 238.594C452.345 235.075 453.969 230.563 455.322 225.059C456.676 219.555 457.307 215.134 457.307 211.976C457.307 210.803 457.127 209.63 456.676 208.638C456.225 207.645 455.052 207.194 453.157 207.104C449.999 207.104 447.021 208.367 444.314 210.893C441.607 213.51 439.442 216.668 437.818 220.368C436.194 224.157 435.382 227.857 435.382 231.556C435.382 235.255 436.374 238.504 438.359 241.21C439.713 242.654 441.247 243.376 442.871 243.376Z" stroke="white" stroke-width="62" stroke-linejoin="round" mask="url(#path-1-outside-1_2_66)"/>
<path d="M337.685 236.855C335.96 236.855 334.235 236.731 332.511 236.485C330.786 236.362 329.061 236.177 327.337 235.931L337.13 186.223C338.362 179.447 339.656 172.302 341.011 164.787C342.489 157.149 343.906 149.634 345.261 142.243C346.616 134.728 347.786 127.768 348.772 121.362C349.881 114.956 350.743 109.535 351.359 105.1C356.656 104.115 362.015 103.191 367.436 102.328C372.856 101.466 378.4 101.035 384.067 101.035C393.183 101.035 400.39 102.944 405.687 106.763C410.984 110.459 414.803 115.387 417.144 121.546C419.485 127.583 420.655 134.235 420.655 141.504C420.655 148.033 419.731 154.932 417.883 162.2C416.035 169.345 413.386 176.49 409.937 183.635C406.611 190.657 402.607 197.31 397.926 203.593C390.657 213.325 381.788 221.332 371.316 227.615C360.968 233.775 349.758 236.855 337.685 236.855ZM359.675 213.571C363.986 210.738 368.052 206.426 371.871 200.636C375.813 194.846 379.509 187.886 382.958 179.755C386.038 172.24 388.44 165.157 390.165 158.504C391.889 151.729 392.752 146.123 392.752 141.688C392.752 137.13 391.458 133.558 388.871 130.971C386.407 128.384 382.465 127.09 377.045 127.09C375.074 137.685 373.041 147.478 370.947 156.472C368.976 165.465 367.005 174.519 365.033 183.635C363.186 192.752 361.399 202.73 359.675 213.571Z" stroke="white" stroke-width="62" stroke-linejoin="round" mask="url(#path-1-outside-1_2_66)"/>
<path d="M234.666 109.206H284.928C308.828 109.575 320.777 121.894 320.777 146.163V149.859H247.601C246.615 150.968 245.753 152.077 245.014 153.185C244.398 154.171 244.09 155.341 244.09 156.696C244.09 158.667 244.767 160.515 246.123 162.24C247.478 163.841 249.141 165.505 251.112 167.229C253.206 168.831 255.424 170.617 257.764 172.588C260.228 174.436 262.446 176.592 264.417 179.056C266.511 181.396 268.174 184.168 269.406 187.371C270.761 190.451 271.439 194.024 271.439 198.089C275.874 198.089 279.015 196.734 280.863 194.024C282.834 191.313 284.066 188.172 284.559 184.599C285.051 180.904 285.051 177.208 284.559 173.512C284.189 169.693 284.004 166.675 284.004 164.457H320.962C321.332 170.74 320.531 176.222 318.56 180.904C316.589 185.585 313.755 189.465 310.06 192.545C306.487 195.625 302.237 197.966 297.309 199.567C292.381 201.046 287.146 201.723 281.602 201.6H234.85L234.666 109.206ZM283.819 146.163C283.819 143.946 284.004 140.989 284.374 137.293C284.867 133.474 284.867 129.779 284.374 126.206C284.004 122.51 282.896 119.369 281.048 116.782C279.2 114.072 276.058 112.717 271.623 112.717C271.623 117.398 270.946 121.463 269.591 124.913C268.359 128.362 266.696 131.38 264.601 133.967C262.63 136.554 260.475 138.833 258.134 140.804C255.916 142.652 253.761 144.439 251.666 146.163H283.819Z" stroke="white" stroke-width="62" stroke-linejoin="round" mask="url(#path-1-outside-1_2_66)"/>
<path d="M89.0237 239.072V237.963C101.959 222.256 101.774 142.243 101.774 119.329V106.763C101.774 96.9696 101.774 86.991 101.405 77.1972C100.665 60.1966 100.111 34.6958 77.382 34.6958C67.2186 34.6958 59.6423 40.7938 59.6423 51.5115C59.6423 60.0118 66.1099 67.2186 74.7949 67.2186C77.0124 67.2186 79.4146 66.6642 81.4473 65.5555L82.0017 67.2186C76.0884 75.3493 65.5555 78.6755 55.9465 78.6755C42.0873 78.6755 31 71.284 31 56.5008C31 36.3589 56.1313 31 72.0231 31C90.3172 31 108.426 34.1414 126.721 34.1414C143.352 34.1414 159.983 31.7392 176.614 31.7392C207.288 31.7392 224.843 53.729 224.843 83.2952C224.843 106.579 212.463 134.112 187.516 139.286C198.973 166.82 231.311 246.279 266.051 246.279C275.845 246.279 283.421 239.072 283.421 229.278C283.421 218.93 274.921 214.31 265.497 215.05V214.126C270.856 210.43 277.508 208.397 283.976 208.397C295.987 208.397 309.846 213.941 309.846 227.985C309.846 243.507 293.954 251.638 280.28 251.638C267.53 251.638 255.334 247.757 242.953 244.801C229.094 241.474 214.865 239.257 200.636 239.257C195.092 239.257 189.734 239.626 184.19 240.181C183.82 222.072 156.656 141.504 136.514 141.504C136.699 160.722 137.069 224.659 149.265 237.963V239.072C139.101 237.963 128.938 237.224 118.775 237.224C108.796 237.224 98.8175 237.963 89.0237 239.072ZM136.514 136.145V136.699C138.177 136.884 139.656 136.884 141.319 136.884C171.255 136.884 186.407 113.231 186.407 85.3279C186.407 66.849 177.537 37.2828 154.624 37.2828C141.319 37.2828 137.254 45.5983 137.254 57.6096C137.254 83.8496 136.514 109.905 136.514 136.145Z" stroke="white" stroke-width="62" stroke-linejoin="round" mask="url(#path-1-outside-1_2_66)"/>
</svg>
