<svg width="60" height="60" viewBox="0 0 60 60" fill="none" xmlns="http://www.w3.org/2000/svg">
<rect width="59.5802" height="59.5802" rx="29.7901" fill="white"/>
<path d="M40.8132 20.7042C40.8132 26.616 36.0208 31.4085 30.109 31.4085C24.1972 31.4085 19.4048 26.616 19.4048 20.7042C19.4048 14.7924 24.1972 10 30.109 10C36.0208 10 40.8132 14.7924 40.8132 20.7042Z" fill="#F7B9C4"/>
<path d="M20.6513 30.3051C23.1318 33.881 27.7809 35.4807 29.9255 35.8829C30.0477 35.9059 30.1706 35.9059 30.2928 35.8827C32.4114 35.4803 36.6131 33.882 39.0124 30.3107C39.4023 29.7304 40.2013 29.5341 40.7467 29.9715C44.3763 32.8831 49.4633 38.1242 47.0105 40.9859C43.6442 44.9132 39.7193 48.8404 29.672 49.9858C29.5893 49.9952 29.5018 49.9952 29.4191 49.9858C19.3766 48.8404 16.0104 44.9131 12.6443 40.9859C10.1914 38.1242 15.2784 32.8831 18.908 29.9715C19.4534 29.5341 20.2528 29.7306 20.6513 30.3051Z" fill="#6662EA"/>
</svg>
